<svg width="500" height="500" viewBox="0 0 500 500" fill="none" xmlns="http://www.w3.org/2000/svg">
<g clip-path="url(#clip0_319_499)">
<path d="M136.342 284.457C136.342 284.457 141.084 342.658 186.133 370.801C231.182 398.944 274.894 396.968 308.846 386.66C342.797 376.353 365.656 345.696 373.18 331.541C380.704 317.386 383.097 298.386 383.294 287.759L380.637 288.508C380.637 288.508 352.332 307.14 327.797 312.359C327.797 312.359 314.218 335.005 313.144 335.005C312.069 335.005 307.475 335.005 307.475 335.005L306.096 337.688C306.096 337.688 299.369 359.325 292.318 366.93L219.506 365.921C219.506 365.921 204.784 352.903 202.045 332.943L199.668 329.498L189.129 324.197L179.724 306.69C179.724 306.69 139.19 283.013 138.903 282.921C138.616 282.83 137.578 282.908 137.18 282.921C136.781 282.935 136.342 284.457 136.342 284.457Z" fill="url(#paint0_linear_319_499)"/>
<path d="M298.931 139.184C284.434 132.39 272.845 130.202 262.733 130.202C253.45 130.202 245.411 132.045 237.498 133.858C217.004 138.553 199.157 150.248 187.244 166.785C177.336 180.539 172.249 196.263 172.124 213.52C172.028 226.839 176.394 238.039 185.1 246.809C204.728 266.58 242.577 270.73 270.871 270.73C289.283 270.73 349.542 267.601 351.888 227.329C353.934 192.187 331.168 154.293 298.931 139.184Z" fill="#000072"/>
<path d="M270.261 108.699C250.258 108.699 227.251 117.702 205.476 134.049C184.351 149.91 166.16 171.18 154.254 193.941C131.403 237.627 136.725 276.639 137.235 279.955C147.458 289.326 179.4 306.517 179.723 306.69C179.837 306.751 179.93 306.842 179.994 306.953L190.021 324.366L201.558 330.503C202.565 325.742 206.663 307.387 210.455 304.859C214.82 301.949 281.357 302.547 290.449 305.578C299.629 308.638 306.209 330.573 307.272 334.316H312.911C314.3 332.814 322.325 319.984 327.21 312C327.305 311.844 327.458 311.732 327.636 311.69C355.411 304.994 380.338 287.945 383.169 285.966C386.316 234.775 367.06 181.71 331.62 143.951C311.21 122.207 287.699 108.699 270.261 108.699ZM353.262 227.409C350.846 268.883 289.589 272.107 270.871 272.107C242.315 272.107 204.085 267.886 184.123 247.779C175.149 238.739 170.649 227.21 170.748 213.51C170.875 195.962 176.049 179.97 186.127 165.981C198.236 149.171 216.37 137.286 237.19 132.516C253.17 128.855 271.282 124.705 299.516 137.938C315.251 145.313 329.361 158.294 339.244 174.49C349.311 190.985 354.289 209.779 353.262 227.409Z" fill="url(#paint1_linear_319_499)"/>
<path d="M219.553 365.396C219.564 365.405 219.568 365.419 219.578 365.429C219.59 365.44 219.606 365.447 219.617 365.46C221.459 367.591 291.087 368.785 291.115 368.74C291.118 368.735 291.124 368.732 291.127 368.727C291.131 368.721 291.132 368.714 291.136 368.709C291.243 368.559 301.832 353.498 306.039 335.018C305.446 332.907 298.771 309.803 290.013 306.883C285.23 305.29 265.683 304.448 248.431 304.321C228.867 304.177 212.873 304.901 211.218 306.004C208.145 308.053 204.07 325.095 202.735 331.598C203.032 350.477 219.387 365.249 219.553 365.396Z" fill="#9EFFB7"/>
<g opacity="0.25">
<path d="M183.395 330.831C183.75 331.275 202.34 339.377 202.34 339.377C202.341 339.377 202.342 339.377 202.343 339.377C201.789 336.997 201.438 334.519 201.373 331.963L189.199 325.488C189.085 325.428 188.991 325.336 188.926 325.224L178.9 307.81C176.812 306.685 150.324 290.526 137.659 282.148C138.131 284.082 137.432 288.426 138.711 292.937C138.711 292.937 169.008 309.161 173.804 312.092C178.599 315.023 183.04 330.387 183.395 330.831Z" fill="#00116B"/>
</g>
<g opacity="0.25">
<path d="M319.471 339.467C319.827 339.023 328.902 319.964 334.125 317.887C339.504 315.748 380.197 299.179 383.006 298.051C384.396 293.738 382.764 288.978 383.293 287.137C372.868 293.261 346.104 308.606 328.236 312.96C314.324 335.692 313.614 335.693 313.144 335.693H307.293C306.762 337.974 306.135 340.201 305.446 342.355C305.446 342.355 305.446 342.356 305.447 342.356C305.447 342.356 319.116 339.911 319.471 339.467Z" fill="#00116B"/>
</g>
<g opacity="0.25">
<path d="M222.109 362.061C226.007 366.968 232.05 365.66 238.278 366.353L254.195 366.188L274.449 366.893C280.902 366.686 285.802 368.225 289.036 362.638C290.427 360.236 291.873 357.967 292.893 355.848C297.429 346.423 299.623 340.891 300.795 332.256C300.795 332.256 294.594 346.437 282.511 354.785C270.428 363.133 254.387 361.119 254.387 361.119C254.387 361.119 238.245 361.918 226.162 353.57C214.078 345.222 207.979 332.256 207.979 332.256C209.151 340.891 213.366 348.711 217.765 355.848C219.027 357.895 220.471 359.998 222.109 362.061Z" fill="#00116B"/>
</g>
<g opacity="0.25">
<path d="M324.6 305.298L376.287 281.187C376.464 277.424 375.914 266.604 375.914 266.604C367.27 273.67 341.633 284.562 341.633 284.562L341.14 278.482C340.895 275.46 337.502 273.846 334.974 275.521C305.123 295.302 260.516 294.597 260.516 294.597C260.516 294.597 215.909 295.302 186.058 275.521C183.53 273.846 180.137 275.46 179.891 278.482L179.398 284.562C179.398 284.562 153.762 273.67 145.118 266.604C145.118 266.604 142.099 272.595 142.277 276.358L184.372 300.902L193.341 319.552L202.98 324.264C202.98 324.264 202.981 324.261 202.981 324.261C204.754 316.992 207.685 306.705 210.455 304.859C214.82 301.948 281.357 302.547 290.449 305.578C297.579 307.955 303.14 321.715 305.766 329.497L311.678 328.744L324.6 305.298Z" fill="#000072"/>
</g>
<g opacity="0.4">
<path d="M160.059 321.228C161.382 322.064 169.46 324.136 169.808 324.597C170.157 325.058 177.329 336.618 180.811 340.17C180.811 340.17 172.872 322.342 172.455 321.855C172.037 321.367 156.159 316.284 156.159 316.632C156.159 316.98 158.736 320.392 160.059 321.228Z" fill="white"/>
</g>
<g opacity="0.4">
<path d="M344.655 324.597C345.004 324.136 353.082 322.064 354.405 321.228C355.728 320.392 358.305 316.98 358.305 316.632C358.305 316.284 342.427 321.367 342.009 321.855C341.591 322.342 333.652 340.17 333.652 340.17C337.134 336.618 344.307 325.058 344.655 324.597Z" fill="white"/>
</g>
<g opacity="0.4">
<path d="M303.438 327.083C302.04 321.172 294.972 312.672 292.967 308.576C292.428 307.622 291.88 306.798 291.34 306.154C291.278 306.102 291.216 306.045 291.155 306.004C290.079 305.287 282.937 304.73 272.696 304.468C266.987 304.376 260.837 304.332 255.54 304.312C255.01 304.314 254.478 304.317 253.942 304.321C253.03 304.328 252.109 304.337 251.187 304.348C250.264 304.337 249.343 304.328 248.431 304.321C247.895 304.317 247.363 304.314 246.833 304.312C241.536 304.332 235.386 304.376 229.677 304.468C219.436 304.73 212.294 305.287 211.218 306.004C211.157 306.045 211.095 306.102 211.033 306.154C210.493 306.798 209.945 307.622 209.406 308.576C207.401 312.672 205.289 320.488 203.892 326.398C203.893 327.046 203.96 327.577 204.109 327.945C204.109 327.945 213.701 310.028 214.367 309.694C214.74 309.508 229.217 309.53 241.857 309.586V309.694C241.857 309.694 285.544 309.938 288.573 312.155C292.703 315.176 304.485 332.256 304.485 332.256C304.635 331.888 303.436 327.73 303.438 327.083Z" fill="white"/>
</g>
<g opacity="0.25">
<path d="M229.677 304.468C235.386 304.376 241.536 304.332 246.833 304.312C240.592 304.28 234.755 304.338 229.677 304.468Z" fill="#00116B"/>
</g>
<g opacity="0.4">
<path d="M229.677 304.468C235.386 304.376 241.536 304.332 246.833 304.312C240.592 304.28 234.755 304.338 229.677 304.468Z" fill="white"/>
</g>
<g opacity="0.4">
<path d="M169.279 206.734C169.279 206.734 160.395 230.787 180.818 250.926C201.24 271.065 227.967 278.315 275.794 277.166C323.621 276.017 343.503 264.278 352.708 246.943C361.914 229.607 352.708 207.155 352.708 207.155C352.708 207.155 361.443 240.386 331.879 257.742C302.314 275.098 246.147 276.096 207.688 261.736C169.228 247.375 170.708 216.332 169.279 206.734Z" fill="white"/>
</g>
<path d="M235.644 188.337C236.874 177.553 233.189 168.277 227.414 167.618C221.639 166.96 215.961 175.168 214.731 185.952C213.501 196.737 217.186 206.013 222.961 206.671C228.736 207.33 234.414 199.121 235.644 188.337Z" fill="#158B33"/>
<path d="M312.866 194.463C314.096 183.678 310.412 174.402 304.637 173.744C298.862 173.085 293.183 181.294 291.954 192.078C290.724 202.862 294.409 212.138 300.183 212.797C305.958 213.455 311.637 205.247 312.866 194.463Z" fill="#158B33"/>
<g opacity="0.4">
<path d="M200.789 340.887C200.789 340.887 211.285 368.743 217.093 370.466C222.902 372.189 294.121 372.574 294.121 372.574C294.121 372.574 302.246 362.043 304.498 348.524C304.498 348.524 291.68 366.732 290.819 366.876C289.957 367.02 219.506 365.921 219.506 365.921L200.789 340.887Z" fill="white"/>
</g>
<g opacity="0.25">
<path d="M145.221 315.453C145.221 315.453 183.949 383.532 260.214 383.532C336.479 383.532 375.698 324.197 375.698 324.197C375.698 324.197 354.572 393.397 266.265 393.397C177.959 393.397 151.812 337.177 145.221 316.614" fill="#000072"/>
</g>
<path d="M313.144 337.189H306.75C305.763 337.189 304.899 336.528 304.641 335.576C302.077 326.124 295.711 310.36 289.541 308.303C280.135 305.168 217.079 305.222 211.996 307.288C210.026 308.845 206.382 321.242 204.185 331.979C204.047 332.654 203.599 333.224 202.976 333.517C202.351 333.812 201.628 333.793 201.019 333.47L188.497 326.809C188.135 326.616 187.835 326.326 187.63 325.97L177.815 308.925C173.337 306.503 144.793 290.912 135.105 281.898C134.756 281.574 134.523 281.145 134.441 280.676C134.146 278.993 127.487 238.916 151.709 192.609C163.808 169.477 182.292 147.864 203.752 131.752C226.02 115.033 249.64 105.826 270.262 105.826C288.742 105.826 312.462 119.343 333.714 141.984C350.102 159.444 363.592 180.84 372.727 203.858C383.326 230.568 387.797 258.365 386.015 286.476C385.974 287.129 385.642 287.729 385.11 288.112C384.037 288.883 358.725 306.912 329.191 314.266C328.121 316.008 325.386 320.449 322.62 324.846C314.85 337.189 314.622 337.189 313.144 337.189ZM308.399 332.82H312.19C314.221 330.094 321.193 318.967 325.934 311.218C326.236 310.725 326.723 310.371 327.285 310.235C353.408 303.938 377.025 288.366 381.718 285.15C384.616 234.588 365.524 182.259 330.528 144.974C310.392 123.522 287.3 110.195 270.262 110.195C250.58 110.195 227.892 119.092 206.375 135.245C185.424 150.975 167.384 172.066 155.58 194.634C133.811 236.252 137.868 273.615 138.638 279.206C149.121 288.52 180.114 305.201 180.432 305.372C180.791 305.565 181.089 305.854 181.292 306.207L191.103 323.246L200.511 328.251C202.163 320.734 205.799 306.165 209.625 303.614C212.906 301.426 237.865 301.371 248.452 301.449C265.428 301.573 285.499 302.35 290.923 304.159C300.185 307.246 306.585 326.669 308.399 332.82Z" fill="#000072"/>
<path d="M286.612 369.129C257.948 369.129 219.449 368.105 219.037 368.094C218.523 368.08 218.029 367.884 217.644 367.542C216.929 366.907 200.137 351.751 199.86 331.571C199.844 330.364 200.809 329.373 202.015 329.356C202.025 329.356 202.035 329.356 202.045 329.356C203.238 329.356 204.213 330.315 204.229 331.511C204.451 347.771 217.138 360.985 219.986 363.748C226.111 363.906 264.578 364.857 291.209 364.75C293.431 361.634 301.118 350.058 304.618 334.524C304.883 333.348 306.048 332.611 307.23 332.873C308.406 333.139 309.146 334.308 308.881 335.485C304.559 354.659 294.466 367.727 294.039 368.274C293.627 368.801 292.998 369.11 292.33 369.114C290.482 369.124 288.567 369.129 286.612 369.129Z" fill="#021168"/>
<path d="M270.871 273.602C242.031 273.602 203.386 269.305 183.061 248.833C173.796 239.5 169.15 227.612 169.251 213.499C169.381 195.634 174.65 179.353 184.913 165.106C197.233 148.002 215.683 135.91 236.856 131.057C253.07 127.342 271.447 123.131 300.15 136.583C316.149 144.081 330.486 157.266 340.522 173.711C350.745 190.463 355.8 209.564 354.756 227.496C353.758 244.617 343.135 257.284 323.181 265.146C304.509 272.504 282.393 273.602 270.871 273.602ZM237.832 135.316C217.693 139.93 200.158 151.417 188.458 167.659C178.735 181.156 173.743 196.59 173.62 213.531C173.527 226.437 177.747 237.278 186.162 245.754C205.428 265.16 242.861 269.233 270.871 269.233C288.952 269.233 348.124 266.205 350.394 227.242C352.407 192.676 330.01 155.402 298.296 140.539C270.956 127.725 254.116 131.584 237.832 135.316Z" fill="#000072"/>
<path d="M259.886 395.741C224.259 395.741 193.526 383.742 168.133 359.842C151.731 344.404 143.437 323.619 139.367 308.902C134.97 293.006 134.431 280.896 134.41 280.389C134.361 279.183 135.297 278.166 136.502 278.117C137.69 278.064 138.725 279.004 138.775 280.208C138.795 280.688 141.12 328.416 171.128 356.66C205.543 389.053 250.241 398.828 303.98 385.713C351.921 374.013 381.624 325.02 381.651 286.336C381.651 285.13 382.629 284.153 383.835 284.153C383.836 284.153 383.836 284.153 383.836 284.153C385.043 284.154 386.02 285.133 386.02 286.339C386.005 307.23 377.978 330.145 363.996 349.21C348.816 369.909 327.869 384.38 305.016 389.957C289.212 393.814 274.153 395.741 259.886 395.741Z" fill="#000072"/>
<path d="M350.822 99.2532C352.141 96.0451 352.163 92.8745 350.854 89.8147C348.487 84.2783 342.496 80.6562 339.047 79.5725C334.61 78.1767 330.273 80.6405 328.463 81.8876C336.41 86.1748 344.024 91.8393 350.822 99.2532Z" fill="#9EFFB7"/>
<path d="M172.106 159.69C173.85 158.116 180.339 152.656 191.247 147.91C199.753 144.209 212.215 140.485 227.907 140.485C233.675 140.485 239.877 140.988 246.482 142.18C276.33 147.566 312.051 165.275 339.072 182.142C311.148 145.526 275.129 126.938 249.503 117.757C220.941 107.524 198.771 106.433 198.551 106.423C198.549 106.423 198.548 106.422 198.546 106.422C198.544 106.422 198.541 106.423 198.539 106.423C198.227 106.403 167.529 104.7 161.214 121.256C155.218 136.976 162.827 151.325 172.106 159.69Z" fill="#535580"/>
<path d="M330.612 116.048C332.352 133.688 319.055 152.554 316.634 155.823C325.621 163.888 334.335 173.278 342.332 184.2C354.958 192.258 365.443 199.998 372.166 205.96C374.323 199.648 385.357 162.505 363.331 119.728C359.63 112.541 355.335 106.375 350.622 101.086C350.533 101.023 350.464 100.945 350.415 100.852C343.355 92.989 335.363 87.0924 327.022 82.6979C326.876 82.6747 326.737 82.6081 326.629 82.4929C317.404 77.6915 307.764 74.7158 298.485 72.9595C307.684 77.8307 327.734 91.1735 330.612 116.048Z" fill="#535580"/>
<path d="M315.672 155.735C318.144 152.332 330.972 133.763 329.321 117.021C325.82 86.765 296.14 73.9799 293.646 72.9593C278.649 70.7523 265.007 71.5334 256.188 72.5843C248.438 73.5074 241.175 75.5725 234.599 78.7219C216.196 87.5367 203.313 102.034 200.032 105.965C205.251 106.368 225.241 108.408 249.999 117.272C268.745 123.983 293.011 135.7 315.672 155.735Z" fill="#9EFFB7"/>
<g opacity="0.25">
<path d="M174.07 122.22C161.874 135.525 173.102 151.878 176.494 156.207C179.787 153.841 184.719 150.751 191.247 147.911C199.753 144.21 212.215 140.486 227.907 140.486C233.675 140.486 239.877 140.989 246.482 142.181C268.512 146.156 293.738 156.846 316.307 168.954C320.652 171.23 323.051 172.653 323.051 172.653C275.677 121.844 188.257 106.743 174.07 122.22Z" fill="#000072"/>
</g>
<g opacity="0.25">
<path d="M300.355 82.4341C300.355 94.3343 278.331 114.76 252.577 108.188C226.822 101.617 228.598 87.2297 228.598 87.2297C215.01 94.1568 205.75 105.736 205.75 105.736C205.75 105.736 205.75 105.736 205.751 105.737C214.586 106.835 230.832 109.611 249.921 116.445C267.486 122.734 289.899 133.418 311.296 151.222C315.887 144.802 323.051 133.01 323.051 119.378C320.703 92.5582 300.355 82.4341 300.355 82.4341Z" fill="#000072"/>
</g>
<g opacity="0.25">
<path d="M369.804 154.908C369.804 154.908 365.363 158.099 351.824 152.06C338.284 146.021 330.728 127.46 330.728 127.46C330.509 127.267 330.111 127.782 329.631 128.674C326.611 141.813 318.477 153.335 316.635 155.823C325.621 163.888 334.336 173.278 342.332 184.2C352.591 190.747 361.436 197.084 367.998 202.428C375.607 179.974 369.804 154.908 369.804 154.908Z" fill="#000072"/>
</g>
<g opacity="0.25">
<path d="M349.211 93.0133C348.412 90.4489 342.717 86.3859 339.353 84.9873C336.785 83.9194 334.436 84.4811 333.466 84.8071C338.965 88.2604 344.247 92.4406 349.141 97.4786C349.424 96.6775 349.791 94.8744 349.211 93.0133Z" fill="#00116B"/>
</g>
<g opacity="0.4">
<path d="M178.244 112.451C197.421 106.031 267.023 120.057 303.194 146.565C284.221 132.276 264.969 123.299 249.503 117.758C220.941 107.525 198.771 106.434 198.551 106.424C198.549 106.424 198.548 106.423 198.546 106.423C198.544 106.423 198.541 106.423 198.539 106.423C198.227 106.404 167.529 104.701 161.214 121.257C157.868 130.03 158.762 138.374 161.816 145.492C161.432 138.757 161.652 118.007 178.244 112.451Z" fill="white"/>
</g>
<g opacity="0.4">
<path d="M355.772 114.227C366.327 130.233 372.42 146.266 375.03 154.08C373.14 143.458 369.556 131.818 363.331 119.727C359.63 112.541 355.335 106.374 350.622 101.086C350.533 101.023 350.464 100.944 350.415 100.851C343.355 92.9885 335.363 87.0919 327.022 82.6974C326.876 82.6742 326.737 82.6076 326.629 82.4924C317.404 77.691 307.764 74.7154 298.485 72.959C301.6 74.6082 305.959 77.2325 310.473 80.9426C314.61 82.5161 342.161 93.5866 355.772 114.227Z" fill="white"/>
</g>
<path d="M372.468 209.339C371.931 209.339 371.408 209.142 371.001 208.774C354.281 193.631 294.555 153.775 245.972 145.008C222.204 140.719 203.818 145.607 192.58 150.463C180.373 155.739 173.704 162.123 173.639 162.187C172.821 162.978 171.534 163.012 170.678 162.263C160.464 153.327 151.908 137.592 158.53 120.232C164.927 103.462 191.59 103.319 197.569 103.506C200.728 99.6539 213.855 84.6087 233.281 75.3042C240.141 72.0183 247.708 69.8651 255.771 68.9047C271.052 67.0846 293.985 66.6494 316.47 74.9176C338.586 83.0504 355.211 97.6843 365.884 118.412C378.772 143.441 380.444 166.404 379.577 181.262C378.636 197.414 374.666 207.54 374.497 207.963C374.233 208.628 373.659 209.121 372.962 209.283C372.798 209.321 372.632 209.339 372.468 209.339ZM227.905 138.989C233.758 138.989 240.049 139.499 246.748 140.708C291.248 148.738 348.709 183.977 371.438 203.345C372.657 199.289 374.631 191.336 375.227 180.82C376.035 166.55 374.396 144.486 362 120.412C335.829 69.5889 279.356 70.4919 256.287 73.2428C248.701 74.1464 241.596 76.1658 235.168 79.2444C214.155 89.3092 200.448 106.893 200.312 107.069C199.869 107.644 199.171 107.963 198.447 107.916C198.147 107.897 168.532 106.269 162.612 121.789C157.094 136.257 163.685 149.547 172.143 157.68C174.865 155.398 181.119 150.685 190.65 146.538C199.298 142.775 211.965 138.989 227.905 138.989Z" fill="#000072"/>
<path d="M341.944 187.011C341.27 187.011 340.605 186.7 340.177 186.115C312.204 147.785 275.208 128.571 249.098 119.202C220.731 109.022 198.703 107.928 198.484 107.918C197.279 107.864 196.346 106.843 196.399 105.638C196.454 104.433 197.475 103.499 198.678 103.553C199.595 103.594 221.465 104.668 250.426 115.036C277.157 124.607 315.04 144.26 343.706 183.539C344.417 184.513 344.204 185.88 343.23 186.591C342.841 186.875 342.39 187.011 341.944 187.011Z" fill="#000072"/>
<path d="M315.729 158.065C315.264 158.065 314.794 157.917 314.398 157.611C313.442 156.875 313.264 155.504 313.999 154.548C314.155 154.346 329.511 134.157 327.755 116.341C324.229 85.8762 293.176 73.5818 292.863 73.4609C291.737 73.0279 291.175 71.7644 291.607 70.6389C292.04 69.5125 293.302 68.9513 294.427 69.3815C294.773 69.5143 303.003 72.7113 311.784 80.0044C323.483 89.7212 330.507 102.125 332.099 115.875C334.03 135.466 318.138 156.335 317.461 157.214C317.03 157.773 316.383 158.065 315.729 158.065Z" fill="#000072"/>
<path d="M351.01 102.72C350.686 102.72 350.357 102.647 350.046 102.494C348.964 101.961 348.519 100.651 349.053 99.5688C350.597 96.4374 350.74 93.3535 349.478 90.4034C347.309 85.331 341.783 82.001 338.598 81C333.674 79.4528 328.599 83.6419 328.549 83.6847C327.633 84.4699 326.254 84.3634 325.469 83.4475C324.684 82.5314 324.79 81.1523 325.706 80.3674C325.985 80.1282 332.618 74.54 339.908 76.8319C344.647 78.3215 350.921 82.6659 353.495 88.6855C355.256 92.8027 355.075 97.2342 352.971 101.501C352.591 102.272 351.816 102.72 351.01 102.72Z" fill="#000072"/>
<path d="M253.242 201.236L268.168 202.185C270.426 202.329 271.898 204.648 271.033 206.738C269.352 210.795 265.941 216.231 259.782 215.959C253.556 215.685 250.912 209.676 249.813 205.351C249.26 203.173 251 201.093 253.242 201.236Z" fill="#158B33"/>
<g opacity="0.2">
<path d="M265.547 452.218C317.796 452.218 360.153 448.449 360.153 443.799C360.153 439.149 317.796 435.38 265.547 435.38C213.298 435.38 170.942 439.149 170.942 443.799C170.942 448.449 213.298 452.218 265.547 452.218Z" fill="#00116B"/>
</g>
<path d="M298.352 225.81H210.972C201.815 225.81 194.365 233.26 194.365 242.417V350.092C194.365 359.249 201.815 366.699 210.972 366.699H298.352C307.509 366.699 314.959 359.249 314.959 350.092V242.417C314.959 233.26 307.509 225.81 298.352 225.81Z" fill="#9EFFB7"/>
<g opacity="0.25">
<path d="M297.389 332.028C292.879 341.612 281.475 341.612 281.475 341.612H254.662H227.849C227.849 341.612 216.445 341.612 211.935 332.028C207.425 322.445 205.734 285.989 201.036 273.399V350.068C201.036 350.068 203.854 360.403 210.807 360.403C217.76 360.403 254.662 360.403 254.662 360.403C254.662 360.403 291.564 360.403 298.517 360.403C305.47 360.403 308.288 350.068 308.288 350.068V273.399C303.59 285.989 301.899 322.445 297.389 332.028Z" fill="#000072"/>
</g>
<g opacity="0.4">
<path d="M298.352 225.81H254.662H210.972C201.815 225.81 194.365 233.26 194.365 242.417V284.212L195.868 281.949C195.868 281.949 200.472 240.327 200.472 239.669C200.472 239.011 205.546 231.119 213.626 231.119C221.706 231.119 254.662 231.119 254.662 231.119C254.662 231.119 287.618 231.119 295.698 231.119C303.778 231.119 308.852 239.011 308.852 239.669C308.852 240.327 313.456 281.949 313.456 281.949L314.959 284.212V242.417C314.959 233.26 307.509 225.81 298.352 225.81Z" fill="white"/>
</g>
<path d="M252.628 246.014H265.534C265.534 246.014 267.6 242.333 265.923 240.978C264.245 239.622 260.842 239.346 260.214 239.04C259.586 238.734 258.097 234.247 255.353 234.025C252.608 233.803 251.597 234.389 251.249 234.805C250.902 235.22 249.975 238.011 249.975 238.011C249.975 238.011 245.646 239.263 245.078 239.622C244.511 239.98 243.265 242.981 243.401 243.233C243.537 243.484 243.932 244.528 244.327 244.892C244.721 245.256 246.888 246.014 246.888 246.014L252.628 246.014Z" fill="#535580"/>
<path d="M298.352 369.611H210.972C200.209 369.611 191.452 360.854 191.452 350.092V242.417C191.452 231.654 200.209 222.897 210.972 222.897H298.352C309.115 222.897 317.871 231.654 317.871 242.417V350.092C317.871 360.854 309.115 369.611 298.352 369.611ZM210.972 227.266C202.618 227.266 195.821 234.063 195.821 242.417V350.091C195.821 358.445 202.618 365.242 210.972 365.242H298.352C306.706 365.242 313.502 358.445 313.502 350.091V242.417C313.502 234.063 306.706 227.266 298.352 227.266H210.972Z" fill="#000072"/>
<path d="M262.436 248.198H246.888C243.761 248.198 241.217 245.654 241.217 242.527C241.217 239.4 243.761 236.855 246.888 236.855H247.887C248.438 233.614 251.267 231.139 254.662 231.139C258.057 231.139 260.886 233.614 261.437 236.855H262.436C265.563 236.855 268.107 239.4 268.107 242.527C268.107 245.654 265.564 248.198 262.436 248.198ZM246.888 241.224C246.17 241.224 245.585 241.809 245.585 242.527C245.585 243.245 246.17 243.829 246.888 243.829H262.436C263.154 243.829 263.739 243.245 263.739 242.527C263.739 241.809 263.154 241.224 262.436 241.224H259.232C258.569 241.224 257.941 240.923 257.527 240.405C257.112 239.887 256.956 239.209 257.101 238.561C257.144 238.369 257.165 238.189 257.165 238.011C257.165 236.631 256.042 235.508 254.662 235.508C253.282 235.508 252.159 236.631 252.159 238.011C252.159 238.189 252.18 238.369 252.223 238.561C252.368 239.209 252.212 239.887 251.797 240.405C251.383 240.923 250.755 241.224 250.092 241.224H246.888Z" fill="#000072"/>
<path d="M138.024 266.911C135.574 262.641 134.751 258.236 134.482 255.825C128.684 263.077 126.099 270.704 125.249 277.711C127.622 274.775 132.358 269.581 138.024 266.911Z" fill="url(#paint2_linear_319_499)"/>
<path d="M187.074 298.111C185.49 305.708 184.298 319.228 191.401 331.932C197.355 334.26 202.077 333.713 205.429 330.29C211.049 324.551 211.558 311.605 208.258 303.864C204.091 294.087 189.734 297.401 187.074 298.111Z" fill="#535580"/>
<path d="M185.712 297.523C185.713 297.417 185.733 297.315 185.778 297.222C186.303 294.823 186.849 293.053 187.152 292.152C177.261 288.051 169.241 281.43 163.895 277.018C160.811 274.471 158.374 272.46 157.083 272.153C153.567 271.319 147.348 274.828 146.945 275.059C146.234 275.607 130.31 288.11 129.416 304.744C129.415 304.762 129.407 304.778 129.405 304.795C129.403 304.808 129.408 304.821 129.406 304.834C128.136 311.859 132.286 325.589 132.327 325.727C132.357 325.791 137.607 337.997 158.217 337.997C158.514 337.997 158.815 337.994 159.119 337.989C177.723 337.674 187.454 333.448 189.892 332.223C182.745 319.099 184.07 305.221 185.712 297.523Z" fill="url(#paint3_linear_319_499)"/>
<path d="M145.26 274.54C142.43 272.769 140.348 270.518 138.795 268.161C131.817 271.384 126.084 278.939 125.002 280.426C124.423 289.855 126.79 297.852 128.258 301.779C130.39 287.676 141.981 277.242 145.26 274.54Z" fill="#9EFFB7"/>
<g opacity="0.25">
<path d="M210.203 317.623C210.524 313.536 210.078 309.296 208.962 305.78L208.223 304.705C207.119 309.817 191.285 321.207 186.637 318.479C187.354 322.47 188.634 326.621 190.745 330.711C204.008 331.583 208.861 322.686 210.203 317.623Z" fill="#00116B"/>
</g>
<g opacity="0.25">
<path d="M125.002 280.426C124.423 289.855 126.79 297.852 128.258 301.779C129.209 295.49 132.042 289.933 135.179 285.464C133.106 281.346 132.006 277.099 131.466 273.236C128.086 276.316 125.666 279.513 125.002 280.426Z" fill="#000072"/>
</g>
<g opacity="0.25">
<path d="M131.429 260.137C127.739 266.051 125.932 272.081 125.249 277.711C126.585 276.058 128.671 273.688 131.251 271.456C130.739 266.364 131.148 262.152 131.429 260.137Z" fill="#000072"/>
</g>
<g opacity="0.25">
<path d="M159.107 334.607C174.477 334.117 185.159 328.894 187.696 327.533C185.782 322.721 184.865 317.92 184.55 313.462C183.712 307.841 185.06 301.13 185.062 301.122V301.122C185.061 301.122 176.371 314.242 159.528 317.06C144.491 319.577 131.658 310.358 129.482 303.946C129.46 304.212 129.431 304.476 129.416 304.744C129.415 304.762 129.407 304.778 129.405 304.795C129.403 304.808 129.408 304.821 129.406 304.834C128.136 311.859 132.286 325.589 132.328 325.727C132.341 325.756 133.425 328.259 136.497 330.996C140.16 332.642 147.491 334.977 159.107 334.607Z" fill="#000072"/>
</g>
<g opacity="0.4">
<path d="M154.245 277.105C156.359 277.598 171.903 290.652 186.364 294.801C186.678 293.617 186.963 292.715 187.152 292.152C177.261 288.051 169.241 281.43 163.895 277.018C160.811 274.471 158.374 272.46 157.083 272.153C153.567 271.319 147.348 274.828 146.945 275.059C146.697 275.25 144.603 276.894 141.942 279.655L137.756 284.97C137.756 284.97 152.131 276.612 154.245 277.105Z" fill="white"/>
</g>
<g opacity="0.4">
<path d="M138.024 266.911C135.574 262.641 134.751 258.236 134.482 255.825C133.838 256.631 133.239 257.442 132.673 258.256C132.853 260.369 133.428 264.401 135.246 268.459C136.142 267.888 137.068 267.362 138.024 266.911Z" fill="white"/>
</g>
<g opacity="0.4">
<path d="M206.614 301.19C201.179 294.766 189.452 297.476 187.074 298.111C186.829 299.285 186.594 300.601 186.397 302.034C188.972 301.349 200.445 298.785 206.614 301.19Z" fill="white"/>
</g>
<g opacity="0.4">
<path d="M187.46 296.516C187.452 296.505 187.445 296.493 187.437 296.482C187.433 296.496 187.43 296.509 187.427 296.524C187.437 296.521 187.449 296.518 187.46 296.516Z" fill="white"/>
</g>
<g opacity="0.4">
<path d="M138.795 268.161C137.796 268.623 136.827 269.179 135.889 269.788C137.32 272.539 139.369 275.204 142.313 277.176L142.313 277.178C143.545 275.993 144.582 275.099 145.261 274.54C142.43 272.769 140.348 270.518 138.795 268.161Z" fill="white"/>
</g>
<path d="M128.688 306.89C127.874 306.89 127.111 306.433 126.735 305.682C126.588 305.387 123.112 298.342 122.168 288.279C121.293 278.94 122.535 265.16 133.424 252.541C134.02 251.85 134.981 251.603 135.839 251.921C136.693 252.239 137.26 253.053 137.262 253.964C137.263 254.092 137.437 266.876 147.604 272.543C148.249 272.902 148.669 273.563 148.72 274.299C148.771 275.036 148.447 275.748 147.858 276.194C147.698 276.315 131.743 288.594 130.871 304.822C130.817 305.812 130.105 306.642 129.134 306.844C128.985 306.875 128.836 306.89 128.688 306.89ZM133.588 259.47C127.933 267.721 125.551 277.199 126.504 287.714C126.799 290.976 127.394 293.914 128.042 296.356C131.342 285.989 138.984 278.152 142.876 274.672C137 270.265 134.582 263.965 133.588 259.47Z" fill="#000072"/>
<path d="M124.218 282.452C123.79 282.452 123.357 282.327 122.978 282.065C121.986 281.379 121.737 280.018 122.423 279.026C122.707 278.616 129.455 268.957 138.187 265.241C139.299 264.767 140.581 265.285 141.053 266.395C141.525 267.505 141.008 268.788 139.898 269.261C132.317 272.487 126.079 281.42 126.017 281.51C125.593 282.123 124.911 282.452 124.218 282.452Z" fill="#000072"/>
<path d="M158.194 340.91C135.597 340.911 129.843 327.345 129.607 326.759C129.582 326.699 129.561 326.639 129.542 326.577C129.362 325.986 125.145 312.028 126.539 304.316C126.754 303.13 127.886 302.34 129.078 302.556C130.265 302.77 131.054 303.907 130.839 305.094C129.691 311.442 133.3 323.884 133.687 325.192C134.163 326.245 139.304 336.541 158.195 336.541C158.492 336.541 158.79 336.539 159.094 336.533C174.947 336.265 184.206 333.126 187.893 331.544C179.734 315.281 183.604 298.649 185.35 292.964C175.834 288.762 168.156 282.424 162.967 278.14C160.502 276.105 157.707 273.798 156.746 273.569C154.501 273.032 149.969 274.984 147.64 276.339C146.597 276.945 145.26 276.592 144.653 275.549C144.046 274.508 144.398 273.172 145.44 272.564C146.21 272.115 153.095 268.212 157.757 269.319C159.706 269.783 162.11 271.768 165.748 274.771C171.389 279.427 179.114 285.804 188.881 289.711C189.994 290.156 190.54 291.415 190.105 292.532C190.027 292.733 182.368 313.069 192.788 331.439C193.371 332.466 193.032 333.77 192.023 334.383C191.611 334.634 181.675 340.52 159.168 340.902C158.841 340.908 158.514 340.91 158.194 340.91Z" fill="#000072"/>
<path d="M198.01 336.257C195.744 336.257 193.114 335.765 190.073 334.544C188.954 334.094 188.411 332.822 188.861 331.702C189.31 330.583 190.582 330.039 191.703 330.49C197.174 332.688 201.442 332.278 204.388 329.27C209.535 324.015 209.975 311.604 206.919 304.434C202.866 294.926 187.228 299.575 187.07 299.624C185.917 299.975 184.695 299.327 184.343 298.175C183.989 297.022 184.636 295.802 185.787 295.447C186.583 295.202 205.345 289.598 210.938 302.722C214.605 311.325 214.099 325.599 207.51 332.327C205.546 334.332 202.492 336.257 198.01 336.257Z" fill="#000072"/>
<path d="M381.277 266.911C383.726 262.641 384.549 258.236 384.818 255.825C390.616 263.077 393.201 270.704 394.051 277.711C391.679 274.775 386.942 269.581 381.277 266.911Z" fill="url(#paint4_linear_319_499)"/>
<path d="M332.226 298.111C333.81 305.708 335.002 319.228 327.899 331.932C321.945 334.26 317.224 333.713 313.871 330.29C308.251 324.551 307.742 311.605 311.042 303.864C315.209 294.087 329.566 297.401 332.226 298.111Z" fill="#535580"/>
<path d="M333.588 297.523C333.587 297.417 333.567 297.315 333.522 297.222C332.997 294.823 332.451 293.053 332.148 292.152C342.039 288.051 350.059 281.43 355.405 277.018C358.489 274.471 360.926 272.46 362.217 272.153C365.733 271.319 371.952 274.828 372.355 275.059C373.066 275.607 388.99 288.11 389.884 304.744C389.885 304.762 389.893 304.778 389.895 304.795C389.897 304.808 389.892 304.821 389.894 304.834C391.164 311.859 387.014 325.589 386.972 325.727C386.943 325.791 381.693 337.997 361.083 337.997C360.785 337.997 360.485 337.994 360.181 337.989C341.577 337.674 331.846 333.448 329.408 332.223C336.555 319.099 335.23 305.221 333.588 297.523Z" fill="url(#paint5_linear_319_499)"/>
<path d="M374.04 274.54C376.87 272.769 378.952 270.518 380.505 268.161C387.483 271.384 393.216 278.939 394.297 280.426C394.877 289.855 392.51 297.852 391.042 301.779C388.909 287.676 377.319 277.242 374.04 274.54Z" fill="#9EFFB7"/>
<g opacity="0.25">
<path d="M309.097 317.623C308.777 313.536 309.222 309.296 310.339 305.78L311.077 304.705C312.181 309.817 328.015 321.207 332.663 318.479C331.947 322.47 330.666 326.621 328.555 330.711C315.292 331.583 310.439 322.686 309.097 317.623Z" fill="#00116B"/>
</g>
<g opacity="0.25">
<path d="M394.298 280.426C394.878 289.855 392.51 297.852 391.042 301.779C390.091 295.49 387.259 289.933 384.122 285.464C386.194 281.346 387.295 277.099 387.834 273.236C391.214 276.316 393.634 279.513 394.298 280.426Z" fill="#000072"/>
</g>
<g opacity="0.25">
<path d="M387.871 260.137C391.561 266.051 393.368 272.081 394.051 277.711C392.715 276.058 390.629 273.688 388.049 271.456C388.561 266.364 388.153 262.152 387.871 260.137Z" fill="#000072"/>
</g>
<g opacity="0.25">
<path d="M360.193 334.607C344.823 334.117 334.141 328.894 331.604 327.533C333.518 322.721 334.435 317.92 334.75 313.462C335.588 307.841 334.24 301.13 334.238 301.122V301.122C334.239 301.122 342.929 314.242 359.772 317.06C374.81 319.577 387.642 310.358 389.818 303.946C389.84 304.212 389.87 304.476 389.884 304.744C389.885 304.762 389.893 304.778 389.895 304.795C389.897 304.808 389.892 304.821 389.894 304.834C391.164 311.859 387.014 325.589 386.972 325.727C386.959 325.756 385.875 328.259 382.803 330.996C379.14 332.642 371.809 334.977 360.193 334.607Z" fill="#000072"/>
</g>
<g opacity="0.4">
<path d="M365.055 277.105C362.941 277.598 347.397 290.652 332.936 294.801C332.622 293.617 332.337 292.715 332.148 292.152C342.039 288.051 350.059 281.43 355.405 277.018C358.489 274.471 360.926 272.46 362.217 272.153C365.733 271.319 371.952 274.828 372.355 275.059C372.603 275.25 374.697 276.894 377.358 279.655L381.544 284.97C381.544 284.97 367.169 276.612 365.055 277.105Z" fill="white"/>
</g>
<g opacity="0.4">
<path d="M381.277 266.911C383.726 262.641 384.549 258.236 384.818 255.825C385.462 256.631 386.061 257.442 386.628 258.256C386.447 260.369 385.872 264.401 384.054 268.459C383.158 267.888 382.232 267.362 381.277 266.911Z" fill="white"/>
</g>
<g opacity="0.4">
<path d="M312.686 301.19C318.121 294.766 329.848 297.476 332.226 298.111C332.471 299.285 332.706 300.601 332.903 302.034C330.328 301.349 318.855 298.785 312.686 301.19Z" fill="white"/>
</g>
<g opacity="0.4">
<path d="M331.84 296.516C331.848 296.505 331.855 296.493 331.863 296.482C331.867 296.496 331.87 296.509 331.874 296.524C331.863 296.521 331.851 296.518 331.84 296.516Z" fill="white"/>
</g>
<g opacity="0.4">
<path d="M380.505 268.161C381.504 268.623 382.473 269.179 383.411 269.788C381.98 272.539 379.931 275.204 376.987 277.176L376.987 277.178C375.755 275.993 374.718 275.099 374.04 274.54C376.87 272.769 378.952 270.518 380.505 268.161Z" fill="white"/>
</g>
<path d="M390.612 306.889C390.464 306.889 390.315 306.875 390.167 306.844C389.195 306.642 388.483 305.812 388.43 304.822C387.557 288.594 371.602 276.314 371.441 276.192C370.853 275.747 370.529 275.034 370.581 274.298C370.633 273.562 371.052 272.901 371.696 272.543C381.863 266.875 382.037 254.092 382.037 253.963C382.042 253.052 382.61 252.237 383.465 251.922C384.32 251.606 385.28 251.851 385.876 252.541C396.764 265.16 398.007 278.94 397.131 288.279C396.188 298.341 392.712 305.387 392.565 305.682C392.189 306.432 391.426 306.889 390.612 306.889ZM376.424 274.671C380.316 278.152 387.958 285.989 391.258 296.355C391.906 293.913 392.501 290.976 392.796 287.714C393.748 277.2 391.367 267.721 385.712 259.469C384.717 263.965 382.299 270.265 376.424 274.671Z" fill="#000072"/>
<path d="M395.082 282.452C394.389 282.452 393.707 282.124 393.283 281.511C393.185 281.369 386.935 272.467 379.402 269.261C378.292 268.789 377.775 267.506 378.248 266.395C378.72 265.286 380.001 264.768 381.113 265.241C389.845 268.957 396.594 278.616 396.877 279.026C397.563 280.018 397.315 281.379 396.322 282.065C395.943 282.327 395.51 282.452 395.082 282.452Z" fill="#000072"/>
<path d="M361.107 340.91C360.785 340.91 360.461 340.907 360.132 340.902C337.625 340.52 327.689 334.634 327.277 334.383C326.268 333.77 325.929 332.466 326.511 331.439C336.933 313.069 329.272 292.733 329.193 292.529C328.762 291.413 329.307 290.155 330.419 289.711C340.186 285.804 347.911 279.427 353.552 274.771C357.19 271.768 359.594 269.783 361.543 269.319C366.203 268.212 373.091 272.115 373.86 272.564C374.903 273.171 375.255 274.509 374.647 275.551C374.039 276.594 372.7 276.944 371.659 276.338C369.329 274.984 364.8 273.032 362.555 273.569C361.593 273.798 358.798 276.105 356.333 278.14C351.144 282.424 343.466 288.762 333.95 292.964C335.696 298.649 339.566 315.281 331.406 331.544C335.088 333.123 344.348 336.265 360.206 336.533C379.793 336.89 385.099 326.323 385.614 325.188C386.007 323.862 389.608 311.436 388.461 305.093C388.247 303.906 389.035 302.77 390.223 302.556C391.41 302.339 392.546 303.13 392.761 304.317C394.154 312.028 389.939 325.986 389.758 326.577C389.74 326.638 389.718 326.699 389.694 326.759C389.457 327.345 383.7 340.91 361.107 340.91Z" fill="#000072"/>
<path d="M321.289 336.257C316.807 336.257 313.754 334.333 311.79 332.327C305.201 325.599 304.695 311.324 308.363 302.721C313.956 289.599 332.716 295.202 333.512 295.447C334.665 295.802 335.312 297.024 334.957 298.177C334.602 299.33 333.381 299.975 332.229 299.623C332.03 299.563 316.429 294.94 312.381 304.434C309.325 311.604 309.765 324.015 314.912 329.27C317.857 332.278 322.125 332.689 327.597 330.489C328.717 330.039 329.989 330.583 330.438 331.701C330.888 332.821 330.346 334.093 329.226 334.543C326.186 335.765 323.555 336.257 321.289 336.257Z" fill="#000072"/>
</g>
<defs>
<linearGradient id="paint0_linear_319_499" x1="259.818" y1="282.877" x2="259.818" y2="393.637" gradientUnits="userSpaceOnUse">
<stop stop-color="white"/>
<stop offset="1" stop-color="#B5B8DC"/>
</linearGradient>
<linearGradient id="paint1_linear_319_499" x1="259.923" y1="108.699" x2="259.923" y2="334.317" gradientUnits="userSpaceOnUse">
<stop stop-color="white"/>
<stop offset="1" stop-color="#B5B8DC"/>
</linearGradient>
<linearGradient id="paint2_linear_319_499" x1="125.249" y1="266.768" x2="138.023" y2="266.768" gradientUnits="userSpaceOnUse">
<stop stop-color="white"/>
<stop offset="1" stop-color="#B5B8DC"/>
</linearGradient>
<linearGradient id="paint3_linear_319_499" x1="129.164" y1="305.011" x2="189.892" y2="305.011" gradientUnits="userSpaceOnUse">
<stop stop-color="white"/>
<stop offset="1" stop-color="#B5B8DC"/>
</linearGradient>
<linearGradient id="paint4_linear_319_499" x1="394.051" y1="266.768" x2="381.277" y2="266.768" gradientUnits="userSpaceOnUse">
<stop stop-color="white"/>
<stop offset="1" stop-color="#B5B8DC"/>
</linearGradient>
<linearGradient id="paint5_linear_319_499" x1="390.136" y1="305.011" x2="329.408" y2="305.011" gradientUnits="userSpaceOnUse">
<stop stop-color="white"/>
<stop offset="1" stop-color="#B5B8DC"/>
</linearGradient>
<clipPath id="clip0_319_499">
<rect width="500" height="500" fill="white"/>
</clipPath>
</defs>
</svg>
