<svg width="2000" height="2000" viewBox="0 0 2000 2000" fill="none" xmlns="http://www.w3.org/2000/svg">
<path d="M1048 117C1547.18 117 1952 526.569 1952 1032C1952 1537.43 1547.18 1947 1048 1947C548.825 1947 144 1537.43 144 1032C144 526.569 548.825 117 1048 117Z" fill="white" stroke="#9EFFB7" stroke-width="16"/>
<path d="M545.369 1137.83C545.369 1137.83 564.336 1370.63 744.531 1483.2C924.726 1595.78 1099.58 1587.87 1235.38 1546.64C1371.19 1505.41 1462.62 1382.78 1492.72 1326.16C1522.82 1269.54 1532.39 1193.54 1533.17 1151.04L1522.55 1154.03C1522.55 1154.03 1409.33 1228.56 1311.19 1249.43C1311.19 1249.43 1256.87 1340.02 1252.57 1340.02C1248.28 1340.02 1229.9 1340.02 1229.9 1340.02L1224.38 1350.75C1224.38 1350.75 1197.47 1437.3 1169.27 1467.72L878.023 1463.68C878.023 1463.68 819.136 1411.61 808.178 1331.77L798.672 1317.99L756.517 1296.79L718.894 1226.76C718.894 1226.76 556.759 1132.05 555.611 1131.68C554.462 1131.32 550.313 1131.63 548.719 1131.68C547.124 1131.74 545.369 1137.83 545.369 1137.83Z" fill="url(#paint0_linear_340_3)"/>
<path d="M1195.72 556.735C1137.74 529.558 1091.38 520.807 1050.93 520.807C1013.8 520.807 981.644 528.177 949.992 535.429C868.016 554.212 796.627 600.989 748.976 667.14C709.344 722.155 688.997 785.051 688.497 854.079C688.11 907.356 705.574 952.156 740.399 987.234C818.912 1066.32 970.306 1082.92 1083.48 1082.92C1157.13 1082.92 1398.17 1070.4 1407.55 909.316C1415.74 768.746 1324.67 617.169 1195.72 556.735Z" fill="#000072"/>
<path d="M1081.04 434.795C1001.03 434.795 909.002 470.807 821.905 536.196C737.404 599.637 664.639 684.717 617.014 775.763C525.612 950.507 546.9 1106.55 548.938 1119.82C589.833 1157.3 717.6 1226.07 718.893 1226.76C719.348 1227 719.721 1227.37 719.977 1227.81L760.082 1297.46L806.23 1322.01C810.26 1302.97 826.652 1229.55 841.818 1219.43C859.28 1207.79 1125.43 1210.19 1161.79 1222.31C1198.51 1234.55 1224.84 1322.29 1229.09 1337.26H1251.64C1257.2 1331.26 1289.3 1279.93 1308.84 1248C1309.22 1247.37 1309.83 1246.93 1310.54 1246.76C1421.64 1219.97 1521.35 1151.78 1532.67 1143.86C1545.27 939.1 1468.24 726.837 1326.48 575.803C1244.84 488.827 1150.8 434.795 1081.04 434.795ZM1413.05 909.636C1403.38 1075.53 1158.35 1088.42 1083.48 1088.42C969.261 1088.42 816.34 1071.54 736.493 991.113C700.596 954.955 682.594 908.837 682.991 854.038C683.499 783.846 704.196 719.88 744.508 663.921C792.942 596.682 865.481 549.144 948.761 530.062C1012.68 515.419 1085.13 498.818 1198.06 551.75C1261 581.249 1317.44 633.174 1356.98 697.959C1397.24 763.939 1417.15 839.113 1413.05 909.636Z" fill="url(#paint1_linear_340_3)"/>
<path d="M878.214 1461.58C878.257 1461.62 878.273 1461.67 878.313 1461.71C878.36 1461.76 878.423 1461.79 878.467 1461.84C885.836 1470.36 1164.35 1475.14 1164.46 1474.96C1164.47 1474.94 1164.5 1474.93 1164.51 1474.91C1164.53 1474.88 1164.53 1474.86 1164.54 1474.83C1164.97 1474.23 1207.33 1413.99 1224.15 1340.07C1221.78 1331.63 1195.09 1239.21 1160.05 1227.53C1140.92 1221.16 1062.73 1217.79 993.724 1217.28C915.469 1216.71 851.493 1219.6 844.874 1224.02C832.582 1232.21 816.281 1300.38 810.942 1326.39C812.129 1401.91 877.55 1460.99 878.214 1461.58Z" fill="#9EFFB7"/>
<g opacity="0.25">
<path d="M733.579 1323.32C735 1325.1 809.36 1357.51 809.36 1357.51C809.364 1357.51 809.367 1357.51 809.37 1357.51C807.156 1347.99 805.753 1338.08 805.49 1327.85L756.797 1301.95C756.34 1301.71 755.963 1301.35 755.705 1300.9L715.598 1231.24C707.248 1226.74 601.297 1162.1 550.634 1128.59C552.524 1136.33 549.729 1153.7 554.845 1171.75C554.845 1171.75 676.032 1236.64 695.214 1248.37C714.397 1260.09 732.158 1321.55 733.579 1323.32Z" fill="#00116B"/>
</g>
<g opacity="0.25">
<path d="M1277.89 1357.87C1279.31 1356.09 1315.61 1279.85 1336.5 1271.55C1358.01 1262.99 1520.79 1196.71 1532.02 1192.2C1537.58 1174.95 1531.06 1155.91 1533.17 1148.55C1491.47 1173.04 1384.42 1234.42 1312.94 1251.84C1257.3 1342.77 1254.46 1342.77 1252.57 1342.77H1229.17C1227.05 1351.9 1224.54 1360.8 1221.78 1369.42C1221.78 1369.42 1221.79 1369.42 1221.79 1369.42C1221.79 1369.42 1276.46 1359.64 1277.89 1357.87Z" fill="#00116B"/>
</g>
<g opacity="0.25">
<path d="M888.437 1448.24C904.028 1467.87 928.201 1462.64 953.113 1465.41L1016.78 1464.75L1097.8 1467.57C1123.61 1466.74 1143.21 1472.9 1156.14 1450.55C1161.71 1440.94 1167.49 1431.87 1171.57 1423.39C1189.71 1385.69 1198.49 1363.56 1203.18 1329.02C1203.18 1329.02 1178.38 1385.75 1130.04 1419.14C1081.71 1452.53 1017.55 1444.47 1017.55 1444.47C1017.55 1444.47 952.98 1447.67 904.647 1414.28C856.314 1380.89 831.915 1329.02 831.915 1329.02C836.604 1363.56 853.466 1394.84 871.062 1423.39C876.108 1431.58 881.882 1439.99 888.437 1448.24Z" fill="#00116B"/>
</g>
<g opacity="0.25">
<path d="M1298.4 1221.19L1505.15 1124.75C1505.86 1109.69 1503.65 1066.42 1503.65 1066.42C1469.08 1094.68 1366.53 1138.25 1366.53 1138.25L1364.56 1113.93C1363.58 1101.84 1350.01 1095.38 1339.9 1102.08C1220.49 1181.21 1042.06 1178.39 1042.06 1178.39C1042.06 1178.39 863.634 1181.21 744.231 1102.08C734.121 1095.38 720.546 1101.84 719.565 1113.93L717.593 1138.25C717.593 1138.25 615.047 1094.68 580.473 1066.42C580.473 1066.42 568.395 1090.38 569.106 1105.43L737.486 1203.61L773.365 1278.21L811.92 1297.06C811.92 1297.06 811.924 1297.04 811.924 1297.04C819.015 1267.97 830.741 1226.82 841.818 1219.43C859.28 1207.79 1125.43 1210.19 1161.79 1222.31C1190.31 1231.82 1212.56 1286.86 1223.06 1317.99L1246.71 1314.97L1298.4 1221.19Z" fill="#000072"/>
</g>
<g opacity="0.4">
<path d="M640.235 1284.91C645.527 1288.25 677.84 1296.54 679.232 1298.39C680.625 1300.23 709.317 1346.47 723.245 1360.68C723.245 1360.68 691.489 1289.37 689.818 1287.42C688.147 1285.47 624.636 1265.13 624.636 1266.53C624.636 1267.92 634.942 1281.57 640.235 1284.91Z" fill="white"/>
</g>
<g opacity="0.4">
<path d="M1378.62 1298.39C1380.01 1296.54 1412.33 1288.25 1417.62 1284.91C1422.91 1281.57 1433.22 1267.92 1433.22 1266.53C1433.22 1265.13 1369.71 1285.47 1368.04 1287.42C1366.36 1289.37 1334.61 1360.68 1334.61 1360.68C1348.54 1346.47 1377.23 1300.23 1378.62 1298.39Z" fill="white"/>
</g>
<g opacity="0.4">
<path d="M1213.75 1308.33C1208.16 1284.69 1179.89 1250.69 1171.87 1234.3C1169.71 1230.49 1167.52 1227.19 1165.36 1224.61C1165.11 1224.41 1164.86 1224.18 1164.62 1224.02C1160.31 1221.15 1131.75 1218.92 1090.78 1217.87C1067.95 1217.5 1043.35 1217.33 1022.16 1217.25C1020.04 1217.26 1017.91 1217.27 1015.77 1217.28C1012.12 1217.31 1008.44 1217.35 1004.75 1217.39C1001.05 1217.35 997.373 1217.31 993.723 1217.28C991.58 1217.27 989.453 1217.26 987.333 1217.25C966.145 1217.33 941.544 1217.5 918.708 1217.87C877.745 1218.92 849.176 1221.15 844.872 1224.02C844.627 1224.18 844.378 1224.41 844.131 1224.61C841.97 1227.19 839.781 1230.49 837.622 1234.3C829.605 1250.69 821.155 1281.95 815.566 1305.59C815.571 1308.18 815.838 1310.31 816.436 1311.78C816.436 1311.78 854.802 1240.11 857.466 1238.78C858.961 1238.03 916.869 1238.12 967.428 1238.34V1238.78C967.428 1238.78 1142.18 1239.75 1154.29 1248.62C1170.81 1260.7 1217.94 1329.02 1217.94 1329.02C1218.54 1327.55 1213.74 1310.92 1213.75 1308.33Z" fill="white"/>
</g>
<g opacity="0.25">
<path d="M918.708 1217.87C941.545 1217.5 966.145 1217.33 987.333 1217.24C962.367 1217.12 939.018 1217.35 918.708 1217.87Z" fill="#00116B"/>
</g>
<g opacity="0.4">
<path d="M918.708 1217.87C941.545 1217.5 966.145 1217.33 987.333 1217.24C962.367 1217.12 939.018 1217.35 918.708 1217.87Z" fill="white"/>
</g>
<g opacity="0.4">
<path d="M677.115 826.934C677.115 826.934 641.58 923.145 723.27 1003.7C804.96 1084.26 911.867 1113.26 1103.18 1108.66C1294.49 1104.07 1374.01 1057.11 1410.83 987.768C1447.65 918.426 1410.83 828.619 1410.83 828.619C1410.83 828.619 1445.77 961.541 1327.51 1030.97C1209.26 1100.39 984.588 1104.38 830.75 1046.94C676.911 989.496 682.833 865.328 677.115 826.934Z" fill="white"/>
</g>
<path d="M942.575 753.347C947.494 710.21 932.755 673.106 909.656 670.472C886.556 667.838 863.843 700.672 858.924 743.809C854.005 786.946 868.743 824.05 891.843 826.684C914.943 829.318 937.656 796.484 942.575 753.347Z" fill="#158B33"/>
<path d="M1251.47 777.85C1256.38 734.713 1241.65 697.609 1218.55 694.975C1195.45 692.34 1172.73 725.175 1167.81 768.312C1162.9 811.449 1177.63 848.553 1200.73 851.187C1223.83 853.821 1246.55 820.987 1251.47 777.85Z" fill="#158B33"/>
<g opacity="0.4">
<path d="M803.156 1363.55C803.156 1363.55 845.139 1474.97 868.372 1481.86C891.606 1488.75 1176.48 1490.3 1176.48 1490.3C1176.48 1490.3 1208.98 1448.17 1217.99 1394.1C1217.99 1394.1 1166.72 1466.93 1163.27 1467.5C1159.83 1468.08 878.023 1463.68 878.023 1463.68L803.156 1363.55Z" fill="white"/>
</g>
<g opacity="0.25">
<path d="M580.882 1261.81C580.882 1261.81 735.795 1534.13 1040.86 1534.13C1345.92 1534.13 1502.79 1296.79 1502.79 1296.79C1502.79 1296.79 1418.29 1573.59 1065.06 1573.59C711.833 1573.59 607.247 1348.71 580.882 1266.46" fill="#000072"/>
</g>
<path d="M1252.57 1348.76H1227C1223.05 1348.76 1219.6 1346.11 1218.57 1342.3C1208.31 1304.49 1182.84 1241.44 1158.16 1233.21C1120.54 1220.67 868.316 1220.89 847.984 1229.15C840.103 1235.38 825.528 1284.97 816.739 1327.91C816.187 1330.61 814.395 1332.89 811.903 1334.07C809.405 1335.25 806.51 1335.17 804.076 1333.88L753.988 1307.24C752.54 1306.46 751.339 1305.3 750.519 1303.88L711.261 1235.7C693.346 1226.01 579.171 1163.65 540.419 1127.59C539.025 1126.3 538.092 1124.58 537.765 1122.7C536.583 1115.97 509.947 955.663 606.835 770.437C655.233 677.906 729.166 591.454 815.009 527.007C904.081 460.133 998.561 423.304 1081.05 423.304C1154.97 423.304 1249.85 477.373 1334.85 567.937C1400.41 637.776 1454.37 723.359 1490.91 815.432C1533.3 922.273 1551.19 1033.46 1544.06 1145.9C1543.9 1148.52 1542.57 1150.92 1540.44 1152.45C1536.15 1155.53 1434.9 1227.65 1316.76 1257.06C1312.48 1264.03 1301.54 1281.8 1290.48 1299.38C1259.4 1348.76 1258.49 1348.76 1252.57 1348.76ZM1233.6 1331.28H1248.76C1256.89 1320.38 1284.77 1275.87 1303.74 1244.87C1304.94 1242.9 1306.89 1241.48 1309.14 1240.94C1413.63 1215.75 1508.1 1153.46 1526.87 1140.6C1538.46 938.35 1462.1 729.034 1322.11 579.897C1241.57 494.087 1149.2 440.78 1081.05 440.78C1002.32 440.78 911.566 476.366 825.499 540.981C741.695 603.9 669.537 688.265 622.318 778.537C535.243 945.007 551.471 1094.46 554.552 1116.82C596.483 1154.08 720.455 1220.81 721.727 1221.49C723.162 1222.26 724.354 1223.42 725.167 1224.83L764.412 1292.99L802.042 1313C808.653 1282.93 823.197 1224.66 838.499 1214.45C851.622 1205.7 951.461 1205.48 993.807 1205.8C1061.71 1206.29 1142 1209.4 1163.69 1216.64C1200.74 1228.98 1226.34 1306.68 1233.6 1331.28Z" fill="#000072"/>
<path d="M1146.45 1476.52C1031.79 1476.52 877.796 1472.42 876.148 1472.37C874.09 1472.32 872.117 1471.54 870.576 1470.17C867.717 1467.63 800.547 1407 799.441 1326.28C799.375 1321.46 803.235 1317.49 808.059 1317.43C808.1 1317.43 808.139 1317.43 808.181 1317.43C812.951 1317.43 816.85 1321.26 816.916 1326.04C817.805 1391.09 868.552 1443.94 879.944 1454.99C904.443 1455.62 1058.31 1459.43 1164.83 1459C1173.72 1446.54 1204.47 1400.23 1218.47 1338.1C1219.53 1333.39 1224.19 1330.44 1228.92 1331.49C1233.62 1332.56 1236.58 1337.23 1235.52 1341.94C1218.24 1418.64 1177.86 1470.91 1176.15 1473.1C1174.51 1475.2 1171.99 1476.44 1169.32 1476.45C1161.93 1476.5 1154.27 1476.52 1146.45 1476.52Z" fill="#021168"/>
<path d="M1083.48 1094.41C968.123 1094.41 813.543 1077.22 732.245 995.332C695.182 958 676.598 910.448 677.005 853.996C677.523 782.537 698.599 717.41 739.652 660.423C788.932 592.008 862.73 543.639 947.425 524.229C1012.28 509.367 1085.79 492.523 1200.6 546.33C1264.6 576.323 1321.94 629.065 1362.09 694.843C1402.98 761.851 1423.2 838.256 1419.02 909.984C1415.03 978.468 1372.54 1029.14 1292.72 1060.59C1218.04 1090.01 1129.57 1094.41 1083.48 1094.41ZM951.326 541.263C870.77 559.721 800.63 605.667 753.831 670.638C714.94 724.626 694.971 786.359 694.481 854.123C694.107 905.746 710.987 949.113 744.647 983.018C821.71 1060.64 971.444 1076.93 1083.48 1076.93C1155.81 1076.93 1392.5 1064.82 1401.58 908.968C1409.63 770.705 1320.04 621.608 1193.18 562.155C1083.82 510.9 1016.47 526.336 951.326 541.263Z" fill="#000072"/>
<path d="M1039.54 1582.96C897.036 1582.96 774.102 1534.97 672.533 1439.37C606.925 1377.62 573.746 1294.48 557.467 1235.61C539.881 1172.03 537.723 1123.59 537.64 1121.55C537.442 1116.73 541.19 1112.67 546.009 1112.47C550.76 1112.26 554.901 1116.02 555.101 1120.83C555.182 1122.75 564.479 1313.66 684.51 1426.64C822.174 1556.21 1000.96 1595.31 1215.92 1542.85C1407.68 1496.05 1526.49 1300.08 1526.6 1145.35C1526.6 1140.52 1530.52 1136.61 1535.34 1136.61C1535.34 1136.61 1535.35 1136.61 1535.35 1136.61C1540.17 1136.62 1544.08 1140.53 1544.08 1145.36C1544.02 1228.92 1511.91 1320.58 1455.98 1396.84C1395.26 1479.64 1311.48 1537.52 1220.06 1559.83C1156.85 1575.26 1096.61 1582.96 1039.54 1582.96Z" fill="#000072"/>
<path d="M1403.29 397.012C1408.56 384.18 1408.65 371.497 1403.42 359.258C1393.95 337.113 1369.98 322.624 1356.19 318.289C1338.44 312.706 1321.09 322.561 1313.85 327.55C1345.64 344.699 1376.1 367.357 1403.29 397.012Z" fill="#9EFFB7"/>
<path d="M688.424 638.758C695.401 632.463 721.356 610.623 764.986 591.64C799.012 576.836 848.86 561.941 911.626 561.941C934.699 561.941 959.506 563.952 985.929 568.72C1105.32 590.265 1248.2 661.1 1356.29 728.567C1244.59 582.102 1100.51 507.753 998.012 471.029C883.765 430.096 795.084 425.732 794.202 425.693C794.195 425.693 794.191 425.689 794.184 425.689C794.174 425.688 794.164 425.691 794.154 425.691C792.909 425.613 670.116 418.8 644.857 485.024C620.872 547.905 651.309 605.3 688.424 638.758Z" fill="#535580"/>
<path d="M1322.45 464.189C1329.41 534.75 1276.22 610.215 1266.54 623.291C1302.48 655.55 1337.34 693.11 1369.33 736.799C1419.83 769.03 1461.77 799.989 1488.66 823.84C1497.29 798.592 1541.43 650.019 1453.32 478.909C1438.52 450.163 1421.34 425.498 1402.49 404.344C1402.13 404.091 1401.85 403.777 1401.66 403.406C1373.42 371.954 1341.45 348.368 1308.09 330.79C1307.5 330.697 1306.95 330.431 1306.51 329.97C1269.61 310.764 1231.06 298.862 1193.94 291.836C1230.74 311.321 1310.94 364.692 1322.45 464.189Z" fill="#535580"/>
<path d="M1262.69 622.937C1272.57 609.328 1323.89 535.051 1317.28 468.083C1303.28 347.059 1184.56 295.919 1174.58 291.836C1114.59 283.008 1060.03 286.133 1024.75 290.336C993.75 294.029 964.698 302.289 938.396 314.887C864.782 350.146 813.252 408.136 800.128 423.861C821.003 425.47 900.963 433.632 999.993 469.086C1074.98 495.932 1172.04 542.798 1262.69 622.937Z" fill="#9EFFB7"/>
<g opacity="0.25">
<path d="M696.279 488.879C647.497 542.1 692.406 607.51 705.976 624.825C719.147 615.362 738.875 603.001 764.986 591.641C799.012 576.836 848.86 561.942 911.627 561.942C934.7 561.942 959.507 563.953 985.93 568.721C1074.05 584.622 1174.95 627.381 1265.23 675.812C1282.61 684.919 1292.2 690.609 1292.2 690.609C1102.71 487.372 753.028 426.969 696.279 488.879Z" fill="#000072"/>
</g>
<g opacity="0.25">
<path d="M1201.42 329.735C1201.42 377.336 1113.32 459.04 1010.31 432.752C907.288 406.465 914.393 348.917 914.393 348.917C860.042 376.626 823 422.943 823 422.943C823 422.944 823.002 422.944 823.002 422.945C858.342 427.338 923.328 438.442 999.683 465.778C1069.95 490.934 1159.6 533.669 1245.18 604.885C1263.55 579.208 1292.2 532.04 1292.2 477.512C1282.81 370.231 1201.42 329.735 1201.42 329.735Z" fill="#000072"/>
</g>
<g opacity="0.25">
<path d="M1479.21 619.63C1479.21 619.63 1461.45 632.394 1407.29 608.238C1353.14 584.082 1322.91 509.838 1322.91 509.838C1322.04 509.067 1320.44 511.126 1318.52 514.696C1306.44 567.252 1273.91 613.34 1266.54 623.291C1302.48 655.55 1337.34 693.11 1369.33 736.799C1410.36 762.987 1445.74 788.335 1471.99 809.713C1502.43 719.896 1479.21 619.63 1479.21 619.63Z" fill="#000072"/>
</g>
<g opacity="0.25">
<path d="M1396.84 372.052C1393.65 361.795 1370.87 345.543 1357.41 339.948C1347.14 335.677 1337.74 337.924 1333.86 339.228C1355.86 353.041 1376.99 369.762 1396.56 389.914C1397.7 386.709 1399.16 379.497 1396.84 372.052Z" fill="#00116B"/>
</g>
<g opacity="0.4">
<path d="M712.976 449.804C789.685 424.12 1068.09 480.225 1212.78 586.259C1136.88 529.101 1059.88 493.194 998.012 471.029C883.765 430.096 795.084 425.733 794.202 425.694C794.195 425.693 794.191 425.69 794.184 425.689C794.174 425.689 794.164 425.692 794.154 425.691C792.909 425.613 670.116 418.801 644.857 485.025C631.472 520.117 635.047 553.496 647.262 581.964C645.727 555.026 646.607 472.025 712.976 449.804Z" fill="white"/>
</g>
<g opacity="0.4">
<path d="M1423.09 456.908C1465.31 520.934 1489.68 585.064 1500.12 616.32C1492.56 573.833 1478.22 527.273 1453.32 478.909C1438.52 450.163 1421.34 425.497 1402.49 404.343C1402.13 404.09 1401.85 403.776 1401.66 403.406C1373.42 371.954 1341.45 348.367 1308.09 330.789C1307.5 330.697 1306.95 330.43 1306.51 329.969C1269.61 310.764 1231.06 298.861 1193.94 291.836C1206.4 298.433 1223.83 308.93 1241.89 323.77C1258.44 330.064 1368.64 374.346 1423.09 456.908Z" fill="white"/>
</g>
<path d="M1489.87 837.357C1487.72 837.357 1485.63 836.567 1484 835.096C1417.12 774.522 1178.22 615.097 983.887 580.029C888.816 562.876 815.272 582.428 770.32 601.852C721.492 622.954 694.817 648.49 694.554 648.745C691.285 651.911 686.136 652.048 682.711 649.053C641.854 613.306 607.633 550.367 634.119 480.929C659.708 413.849 766.36 413.276 790.274 414.022C802.911 398.615 855.421 338.434 933.123 301.216C960.565 288.072 990.831 279.459 1023.08 275.618C1084.21 268.337 1175.94 266.597 1265.88 299.669C1354.34 332.201 1420.84 390.736 1463.54 473.649C1515.09 573.761 1521.78 665.616 1518.31 725.045C1514.54 789.655 1498.66 830.16 1497.99 831.852C1496.93 834.512 1494.63 836.484 1491.85 837.131C1491.19 837.282 1490.53 837.357 1489.87 837.357ZM911.621 555.956C935.032 555.956 960.195 557.995 986.992 562.831C1164.99 594.952 1394.83 735.909 1485.75 813.381C1490.63 797.154 1498.52 765.345 1500.91 723.279C1504.14 666.199 1497.58 577.943 1448 481.648C1343.32 278.355 1117.42 281.967 1025.15 292.97C994.805 296.585 966.383 304.662 940.672 316.977C856.62 357.236 801.79 427.571 801.246 428.277C799.476 430.574 796.683 431.852 793.787 431.664C792.586 431.589 674.129 425.074 650.447 487.156C628.374 545.026 654.739 598.186 688.57 630.717C699.458 621.59 724.476 602.738 762.598 586.152C797.19 571.101 847.861 555.956 911.621 555.956Z" fill="#000072"/>
<path d="M1367.77 748.045C1365.08 748.045 1362.42 746.802 1360.71 744.458C1248.81 591.139 1100.83 514.282 996.392 476.806C882.925 436.088 794.81 431.712 793.933 431.672C789.114 431.455 785.381 427.373 785.596 422.554C785.813 417.732 789.9 413.998 794.709 414.214C798.379 414.376 885.859 418.671 1001.7 460.144C1108.63 498.426 1260.16 577.04 1374.82 734.154C1377.67 738.052 1376.82 743.52 1372.92 746.364C1371.36 747.499 1369.56 748.045 1367.77 748.045Z" fill="#000072"/>
<path d="M1262.92 632.259C1261.05 632.259 1259.18 631.667 1257.59 630.442C1253.77 627.498 1253.05 622.012 1256 618.189C1256.62 617.382 1318.05 536.626 1311.02 465.362C1296.92 343.503 1172.7 294.325 1171.45 293.842C1166.95 292.11 1164.7 287.056 1166.43 282.554C1168.16 278.048 1173.21 275.803 1177.71 277.524C1179.09 278.055 1212.01 290.843 1247.14 320.016C1293.93 358.883 1322.03 408.498 1328.39 463.5C1336.12 541.86 1272.55 625.339 1269.84 628.855C1268.12 631.088 1265.53 632.259 1262.92 632.259Z" fill="#000072"/>
<path d="M1404.04 410.878C1402.74 410.878 1401.43 410.588 1400.18 409.975C1395.85 407.841 1394.08 402.602 1396.21 398.273C1402.39 385.748 1402.96 373.412 1397.91 361.612C1389.24 341.322 1367.13 328.002 1354.39 323.998C1334.69 317.809 1314.4 334.566 1314.2 334.737C1310.53 337.878 1305.01 337.452 1301.87 333.788C1298.74 330.124 1299.16 324.607 1302.82 321.468C1303.94 320.511 1330.47 298.158 1359.63 307.326C1378.59 313.284 1403.68 330.662 1413.98 354.74C1421.02 371.209 1420.3 388.935 1411.88 406.001C1410.36 409.088 1407.26 410.878 1404.04 410.878Z" fill="#000072"/>
<path d="M1012.97 804.943L1072.67 808.74C1081.71 809.315 1087.59 818.59 1084.13 826.953C1077.41 843.179 1063.77 864.923 1039.13 863.837C1014.22 862.738 1003.65 838.704 999.253 821.404C997.04 812.693 1004 804.373 1012.97 804.943Z" fill="#158B33"/>
<g opacity="0.2">
<path d="M1062.19 1808.87C1271.19 1808.87 1440.61 1793.79 1440.61 1775.19C1440.61 1756.6 1271.19 1741.52 1062.19 1741.52C853.192 1741.52 683.767 1756.6 683.767 1775.19C683.767 1793.79 853.192 1808.87 1062.19 1808.87Z" fill="#00116B"/>
</g>
<path d="M1193.41 903.239H843.888C807.26 903.239 777.459 933.038 777.459 969.667V1400.37C777.459 1436.99 807.26 1466.79 843.888 1466.79H1193.41C1230.04 1466.79 1259.84 1436.99 1259.84 1400.37V969.667C1259.84 933.038 1230.04 903.239 1193.41 903.239Z" fill="#9EFFB7"/>
<g opacity="0.25">
<path d="M1189.56 1328.11C1171.52 1366.45 1125.9 1366.45 1125.9 1366.45H1018.65H911.395C911.395 1366.45 865.78 1366.45 847.739 1328.11C829.7 1289.78 822.936 1143.96 804.144 1093.59V1400.27C804.144 1400.27 815.418 1441.61 843.229 1441.61C871.04 1441.61 1018.65 1441.61 1018.65 1441.61C1018.65 1441.61 1166.26 1441.61 1194.07 1441.61C1221.88 1441.61 1233.15 1400.27 1233.15 1400.27V1093.59C1214.36 1143.96 1207.6 1289.78 1189.56 1328.11Z" fill="#000072"/>
</g>
<g opacity="0.4">
<path d="M1193.41 903.239H1018.65H843.887C807.26 903.239 777.458 933.038 777.458 969.667V1136.85L783.471 1127.79C783.471 1127.79 801.888 961.307 801.888 958.674C801.888 956.041 822.182 924.474 854.503 924.474C886.824 924.474 1018.65 924.474 1018.65 924.474C1018.65 924.474 1150.47 924.474 1182.79 924.474C1215.11 924.474 1235.41 956.041 1235.41 958.674C1235.41 961.307 1253.82 1127.79 1253.82 1127.79L1259.83 1136.85V969.667C1259.84 933.038 1230.04 903.239 1193.41 903.239Z" fill="white"/>
</g>
<path d="M1010.51 984.054H1062.13C1062.13 984.054 1070.4 969.333 1063.69 963.909C1056.98 958.486 1043.37 957.384 1040.86 956.159C1038.34 954.935 1032.39 936.987 1021.41 936.098C1010.43 935.21 1006.39 937.554 1005 939.217C1003.61 940.881 999.898 952.044 999.898 952.044C999.898 952.044 982.584 957.052 980.314 958.486C978.043 959.92 973.059 971.923 973.604 972.93C974.149 973.937 975.727 978.112 977.306 979.568C978.886 981.025 987.552 984.055 987.552 984.055L1010.51 984.054Z" fill="#535580"/>
<path d="M1193.41 1478.44H843.887C800.836 1478.44 765.809 1443.42 765.809 1400.37V969.668C765.809 926.615 800.836 891.589 843.887 891.589H1193.41C1236.46 891.589 1271.48 926.615 1271.48 969.668V1400.37C1271.48 1443.42 1236.46 1478.44 1193.41 1478.44ZM843.887 909.064C810.472 909.064 783.284 936.251 783.284 969.667V1400.37C783.284 1433.78 810.472 1460.97 843.887 1460.97H1193.41C1226.82 1460.97 1254.01 1433.78 1254.01 1400.37V969.667C1254.01 936.251 1226.82 909.064 1193.41 909.064H843.887Z" fill="#000072"/>
<path d="M1049.74 992.792H987.552C975.042 992.792 964.866 982.616 964.866 970.107C964.866 957.599 975.042 947.422 987.552 947.422H991.548C993.753 934.458 1005.07 924.557 1018.65 924.557C1032.23 924.557 1043.54 934.458 1045.75 947.422H1049.74C1062.25 947.422 1072.43 957.599 1072.43 970.107C1072.43 982.616 1062.25 992.792 1049.74 992.792ZM987.552 964.897C984.678 964.897 982.342 967.235 982.342 970.107C982.342 972.98 984.678 975.316 987.552 975.316H1049.74C1052.62 975.316 1054.95 972.979 1054.95 970.107C1054.95 967.235 1052.62 964.897 1049.74 964.897H1036.93C1034.28 964.897 1031.77 963.691 1030.11 961.62C1028.45 959.548 1027.82 956.835 1028.4 954.245C1028.58 953.476 1028.66 952.756 1028.66 952.043C1028.66 946.523 1024.17 942.032 1018.65 942.032C1013.13 942.032 1008.64 946.523 1008.64 952.043C1008.64 952.756 1008.72 953.476 1008.89 954.245C1009.47 956.834 1008.85 959.548 1007.19 961.62C1005.53 963.691 1003.02 964.897 1000.37 964.897H987.552Z" fill="#000072"/>
<path d="M552.094 1067.64C542.295 1050.56 539.003 1032.94 537.929 1023.3C514.737 1052.31 504.398 1082.81 500.997 1110.84C510.486 1099.1 529.431 1078.32 552.094 1067.64Z" fill="url(#paint2_linear_340_3)"/>
<path d="M748.295 1192.44C741.961 1222.83 737.191 1276.91 765.603 1327.73C789.419 1337.04 808.306 1334.85 821.715 1321.16C844.197 1298.2 846.231 1246.42 833.033 1215.45C816.364 1176.34 758.935 1189.6 748.295 1192.44Z" fill="#535580"/>
<path d="M742.847 1190.09C742.854 1189.67 742.933 1189.26 743.113 1188.89C745.213 1179.29 747.397 1172.21 748.608 1168.61C709.043 1152.21 676.963 1125.72 655.582 1108.07C643.243 1097.89 633.495 1089.84 628.332 1088.61C614.267 1085.28 589.392 1099.31 587.78 1100.23C584.937 1102.43 521.241 1152.44 517.665 1218.98C517.661 1219.05 517.628 1219.11 517.62 1219.18C517.613 1219.23 517.633 1219.28 517.623 1219.34C512.543 1247.44 529.143 1302.36 529.31 1302.91C529.43 1303.16 550.427 1351.99 632.869 1351.99C634.058 1351.99 635.259 1351.98 636.476 1351.96C710.894 1350.7 749.817 1333.79 759.568 1328.89C730.979 1276.4 736.282 1220.88 742.847 1190.09Z" fill="url(#paint3_linear_340_3)"/>
<path d="M581.042 1098.16C569.721 1091.08 561.391 1082.07 555.18 1072.64C527.268 1085.53 504.338 1115.75 500.01 1121.7C497.691 1159.42 507.161 1191.41 513.032 1207.12C521.562 1150.7 567.923 1108.97 581.042 1098.16Z" fill="#9EFFB7"/>
<g opacity="0.25">
<path d="M840.813 1270.49C842.094 1254.15 840.314 1237.19 835.846 1223.12L832.894 1218.82C828.476 1239.27 765.141 1284.83 746.548 1273.92C749.415 1289.88 754.538 1306.48 762.981 1322.84C816.034 1326.33 835.445 1290.74 840.813 1270.49Z" fill="#00116B"/>
</g>
<g opacity="0.25">
<path d="M500.01 1121.7C497.691 1159.42 507.161 1191.41 513.032 1207.12C516.836 1181.96 528.167 1159.73 540.715 1141.85C532.425 1125.38 528.023 1108.4 525.864 1092.94C512.346 1105.26 502.665 1118.05 500.01 1121.7Z" fill="#000072"/>
</g>
<g opacity="0.25">
<path d="M525.715 1040.55C510.957 1064.2 503.729 1088.32 500.997 1110.84C506.341 1104.23 514.685 1094.75 525.004 1085.82C522.956 1065.46 524.59 1048.61 525.715 1040.55Z" fill="#000072"/>
</g>
<g opacity="0.25">
<path d="M636.429 1338.43C697.907 1336.47 740.635 1315.58 750.784 1310.13C743.13 1290.88 739.461 1271.68 738.199 1253.85C734.849 1231.36 740.24 1204.52 740.247 1204.49V1204.49C740.244 1204.49 705.486 1256.97 638.112 1268.24C577.963 1278.31 526.634 1241.43 517.927 1215.78C517.839 1216.85 517.722 1217.9 517.666 1218.98C517.661 1219.05 517.629 1219.11 517.62 1219.18C517.613 1219.23 517.633 1219.28 517.623 1219.34C512.543 1247.44 529.143 1302.36 529.311 1302.91C529.365 1303.02 533.7 1313.03 545.988 1323.98C560.641 1330.57 589.963 1339.91 636.429 1338.43Z" fill="#000072"/>
</g>
<g opacity="0.4">
<path d="M616.98 1108.42C625.437 1110.39 687.613 1162.61 745.455 1179.2C746.713 1174.47 747.851 1170.86 748.608 1168.61C709.042 1152.21 676.963 1125.72 655.581 1108.07C643.242 1097.89 633.494 1089.84 628.332 1088.61C614.266 1085.28 589.392 1099.31 587.779 1100.23C586.789 1101 578.411 1107.58 567.769 1118.62L551.022 1139.88C551.022 1139.88 608.524 1106.45 616.98 1108.42Z" fill="white"/>
</g>
<g opacity="0.4">
<path d="M552.094 1067.64C542.295 1050.56 539.002 1032.94 537.929 1023.3C535.352 1026.52 532.957 1029.77 530.69 1033.02C531.411 1041.47 533.711 1057.6 540.984 1073.83C544.567 1071.55 548.272 1069.44 552.094 1067.64Z" fill="white"/>
</g>
<g opacity="0.4">
<path d="M826.456 1204.76C804.715 1179.06 757.809 1189.9 748.295 1192.44C747.316 1197.14 746.375 1202.41 745.587 1208.14C755.887 1205.4 801.781 1195.14 826.456 1204.76Z" fill="white"/>
</g>
<g opacity="0.4">
<path d="M749.84 1186.06C749.808 1186.02 749.779 1185.97 749.747 1185.93C749.733 1185.98 749.72 1186.03 749.706 1186.09C749.748 1186.08 749.797 1186.07 749.84 1186.06Z" fill="white"/>
</g>
<g opacity="0.4">
<path d="M555.18 1072.64C551.184 1074.49 547.307 1076.72 543.555 1079.15C549.281 1090.16 557.476 1100.81 569.252 1108.7L569.25 1108.71C574.18 1103.97 578.328 1100.39 581.042 1098.16C569.721 1091.07 561.391 1082.07 555.18 1072.64Z" fill="white"/>
</g>
<path d="M514.754 1227.56C511.497 1227.56 508.443 1225.73 506.941 1222.73C506.35 1221.55 492.447 1193.37 488.672 1153.11C485.171 1115.76 490.14 1060.64 533.694 1010.17C536.08 1007.4 539.925 1006.41 543.355 1007.68C546.773 1008.95 549.041 1012.21 549.048 1015.85C549.051 1016.37 549.746 1067.5 590.418 1090.17C592.996 1091.61 594.676 1094.25 594.881 1097.2C595.083 1100.14 593.787 1102.99 591.431 1104.77C590.792 1105.26 526.971 1154.37 523.482 1219.29C523.27 1223.25 520.418 1226.57 516.536 1227.37C515.941 1227.5 515.342 1227.56 514.754 1227.56ZM534.351 1037.88C511.732 1070.88 502.205 1108.8 506.016 1150.86C507.198 1163.9 509.576 1175.65 512.169 1185.42C525.369 1143.95 555.936 1112.61 571.505 1098.69C548.001 1081.06 538.328 1055.86 534.351 1037.88Z" fill="#000072"/>
<path d="M496.873 1129.81C495.159 1129.81 493.428 1129.31 491.912 1128.26C487.942 1125.51 486.948 1120.07 489.693 1116.1C490.826 1114.46 517.82 1075.83 552.747 1060.96C557.195 1059.07 562.322 1061.14 564.209 1065.58C566.099 1070.02 564.031 1075.15 559.593 1077.04C529.268 1089.95 504.317 1125.68 504.068 1126.04C502.371 1128.49 499.644 1129.81 496.873 1129.81Z" fill="#000072"/>
<path d="M632.774 1363.64C542.386 1363.64 519.373 1309.38 518.426 1307.04C518.329 1306.8 518.243 1306.55 518.167 1306.31C517.447 1303.94 500.582 1248.11 506.158 1217.27C507.017 1212.52 511.543 1209.36 516.312 1210.22C521.06 1211.08 524.215 1215.63 523.355 1220.38C518.765 1245.77 533.199 1295.54 534.749 1300.77C536.654 1304.98 557.218 1346.16 632.781 1346.16C633.968 1346.16 635.159 1346.15 636.375 1346.13C699.788 1345.06 736.824 1332.5 751.573 1326.17C718.936 1261.12 734.415 1194.6 741.399 1171.86C703.338 1155.05 672.625 1129.69 651.868 1112.56C642.007 1104.42 630.828 1095.19 626.982 1094.28C618.005 1092.13 599.878 1099.94 590.559 1105.35C586.386 1107.78 581.04 1106.37 578.613 1102.2C576.186 1098.03 577.592 1092.69 581.76 1090.25C584.838 1088.46 612.38 1072.85 631.03 1077.28C638.825 1079.13 648.439 1087.07 662.993 1099.08C685.556 1117.71 716.455 1143.22 755.522 1158.84C759.975 1160.62 762.16 1165.66 760.42 1170.13C760.11 1170.93 729.47 1252.28 771.152 1325.75C773.484 1329.86 772.126 1335.08 768.091 1337.53C766.443 1338.54 726.699 1362.08 636.672 1363.61C635.364 1363.63 634.056 1363.64 632.774 1363.64Z" fill="#000072"/>
<path d="M792.042 1345.03C782.977 1345.03 772.457 1343.06 760.294 1338.17C755.816 1336.37 753.646 1331.29 755.445 1326.81C757.242 1322.33 762.328 1320.16 766.812 1321.96C788.697 1330.75 805.77 1329.11 817.554 1317.08C838.14 1296.06 839.9 1246.42 827.676 1217.74C811.463 1179.7 748.912 1198.3 748.282 1198.49C743.667 1199.9 738.782 1197.31 737.371 1192.7C735.958 1188.09 738.543 1183.21 743.15 1181.79C746.334 1180.81 821.38 1158.39 843.751 1210.89C858.421 1245.3 856.397 1302.4 830.04 1329.31C822.183 1337.33 809.969 1345.03 792.042 1345.03Z" fill="#000072"/>
<path d="M1525.11 1067.64C1534.9 1050.56 1538.2 1032.94 1539.27 1023.3C1562.46 1052.31 1572.8 1082.81 1576.2 1110.84C1566.71 1099.1 1547.77 1078.32 1525.11 1067.64Z" fill="url(#paint4_linear_340_3)"/>
<path d="M1328.9 1192.44C1335.24 1222.83 1340.01 1276.91 1311.6 1327.73C1287.78 1337.04 1268.89 1334.85 1255.49 1321.16C1233 1298.2 1230.97 1246.42 1244.17 1215.45C1260.84 1176.34 1318.27 1189.6 1328.9 1192.44Z" fill="#535580"/>
<path d="M1334.35 1190.09C1334.35 1189.67 1334.27 1189.26 1334.09 1188.89C1331.99 1179.29 1329.8 1172.21 1328.59 1168.61C1368.16 1152.21 1400.24 1125.72 1421.62 1108.07C1433.96 1097.89 1443.71 1089.84 1448.87 1088.61C1462.93 1085.28 1487.81 1099.31 1489.42 1100.23C1492.26 1102.43 1555.96 1152.44 1559.53 1218.98C1559.54 1219.05 1559.57 1219.11 1559.58 1219.18C1559.59 1219.23 1559.57 1219.28 1559.58 1219.34C1564.66 1247.44 1548.06 1302.36 1547.89 1302.91C1547.77 1303.16 1526.77 1351.99 1444.33 1351.99C1443.14 1351.99 1441.94 1351.98 1440.72 1351.96C1366.31 1350.7 1327.38 1333.79 1317.63 1328.89C1346.22 1276.4 1340.92 1220.88 1334.35 1190.09Z" fill="url(#paint5_linear_340_3)"/>
<path d="M1496.16 1098.16C1507.48 1091.08 1515.81 1082.07 1522.02 1072.64C1549.93 1085.53 1572.86 1115.75 1577.19 1121.7C1579.51 1159.42 1570.04 1191.41 1564.17 1207.12C1555.64 1150.7 1509.28 1108.97 1496.16 1098.16Z" fill="#9EFFB7"/>
<g opacity="0.25">
<path d="M1236.39 1270.49C1235.11 1254.15 1236.89 1237.19 1241.35 1223.12L1244.31 1218.82C1248.72 1239.27 1312.06 1284.83 1330.65 1273.92C1327.79 1289.88 1322.66 1306.48 1314.22 1322.84C1261.17 1326.33 1241.76 1290.74 1236.39 1270.49Z" fill="#00116B"/>
</g>
<g opacity="0.25">
<path d="M1577.19 1121.7C1579.51 1159.42 1570.04 1191.41 1564.17 1207.12C1560.36 1181.96 1549.03 1159.73 1536.49 1141.85C1544.78 1125.38 1549.18 1108.4 1551.34 1092.94C1564.85 1105.26 1574.53 1118.05 1577.19 1121.7Z" fill="#000072"/>
</g>
<g opacity="0.25">
<path d="M1551.49 1040.55C1566.24 1064.2 1573.47 1088.32 1576.2 1110.84C1570.86 1104.23 1562.51 1094.75 1552.2 1085.82C1554.24 1065.46 1552.61 1048.61 1551.49 1040.55Z" fill="#000072"/>
</g>
<g opacity="0.25">
<path d="M1440.77 1338.43C1379.29 1336.47 1336.56 1315.58 1326.42 1310.13C1334.07 1290.88 1337.74 1271.68 1339 1253.85C1342.35 1231.36 1336.96 1204.52 1336.95 1204.49V1204.49C1336.96 1204.49 1371.71 1256.97 1439.09 1268.24C1499.24 1278.31 1550.57 1241.43 1559.27 1215.78C1559.36 1216.85 1559.48 1217.9 1559.53 1218.98C1559.54 1219.05 1559.57 1219.11 1559.58 1219.18C1559.59 1219.23 1559.57 1219.28 1559.58 1219.34C1564.66 1247.44 1548.06 1302.36 1547.89 1302.91C1547.84 1303.02 1543.5 1313.03 1531.21 1323.98C1516.56 1330.57 1487.24 1339.91 1440.77 1338.43Z" fill="#000072"/>
</g>
<g opacity="0.4">
<path d="M1460.22 1108.42C1451.76 1110.39 1389.59 1162.61 1331.74 1179.2C1330.49 1174.47 1329.35 1170.86 1328.59 1168.61C1368.16 1152.21 1400.24 1125.72 1421.62 1108.07C1433.96 1097.89 1443.71 1089.84 1448.87 1088.61C1462.93 1085.28 1487.81 1099.31 1489.42 1100.23C1490.41 1101 1498.79 1107.58 1509.43 1118.62L1526.18 1139.88C1526.18 1139.88 1468.68 1106.45 1460.22 1108.42Z" fill="white"/>
</g>
<g opacity="0.4">
<path d="M1525.11 1067.64C1534.9 1050.56 1538.2 1032.94 1539.27 1023.3C1541.85 1026.52 1544.24 1029.77 1546.51 1033.02C1545.79 1041.47 1543.49 1057.6 1536.22 1073.83C1532.63 1071.55 1528.93 1069.44 1525.11 1067.64Z" fill="white"/>
</g>
<g opacity="0.4">
<path d="M1250.74 1204.76C1272.48 1179.06 1319.39 1189.9 1328.9 1192.44C1329.88 1197.14 1330.82 1202.41 1331.61 1208.14C1321.31 1205.4 1275.42 1195.14 1250.74 1204.76Z" fill="white"/>
</g>
<g opacity="0.4">
<path d="M1327.36 1186.06C1327.39 1186.02 1327.42 1185.97 1327.45 1185.93C1327.47 1185.98 1327.48 1186.03 1327.49 1186.09C1327.45 1186.08 1327.4 1186.07 1327.36 1186.06Z" fill="white"/>
</g>
<g opacity="0.4">
<path d="M1522.02 1072.64C1526.02 1074.49 1529.89 1076.72 1533.65 1079.15C1527.92 1090.16 1519.72 1100.81 1507.95 1108.7L1507.95 1108.71C1503.02 1103.97 1498.87 1100.39 1496.16 1098.16C1507.48 1091.07 1515.81 1082.07 1522.02 1072.64Z" fill="white"/>
</g>
<path d="M1562.45 1227.56C1561.86 1227.56 1561.26 1227.5 1560.67 1227.37C1556.78 1226.57 1553.93 1223.25 1553.72 1219.29C1550.23 1154.37 1486.41 1105.26 1485.76 1104.77C1483.41 1102.99 1482.12 1100.14 1482.32 1097.19C1482.53 1094.25 1484.21 1091.61 1486.78 1090.17C1527.45 1067.5 1528.15 1016.37 1528.15 1015.85C1528.17 1012.21 1530.44 1008.95 1533.86 1007.69C1537.28 1006.42 1541.12 1007.4 1543.5 1010.17C1587.06 1060.64 1592.03 1115.76 1588.53 1153.11C1584.75 1193.37 1570.85 1221.55 1570.26 1222.73C1568.76 1225.73 1565.7 1227.56 1562.45 1227.56ZM1505.7 1098.69C1521.27 1112.61 1551.83 1143.95 1565.03 1185.42C1567.63 1175.65 1570 1163.9 1571.18 1150.86C1574.99 1108.8 1565.47 1070.88 1542.85 1037.88C1538.87 1055.86 1529.2 1081.06 1505.7 1098.69Z" fill="#000072"/>
<path d="M1580.33 1129.81C1577.56 1129.81 1574.83 1128.5 1573.13 1126.04C1572.74 1125.48 1547.74 1089.87 1517.61 1077.04C1513.17 1075.15 1511.1 1070.02 1512.99 1065.58C1514.88 1061.14 1520 1059.07 1524.45 1060.96C1559.38 1075.83 1586.38 1114.46 1587.51 1116.1C1590.25 1120.07 1589.26 1125.51 1585.29 1128.26C1583.77 1129.31 1582.04 1129.81 1580.33 1129.81Z" fill="#000072"/>
<path d="M1444.43 1363.64C1443.14 1363.64 1441.84 1363.63 1440.53 1363.61C1350.5 1362.08 1310.75 1338.54 1309.11 1337.53C1305.07 1335.08 1303.71 1329.86 1306.05 1325.75C1347.73 1252.28 1317.09 1170.93 1316.77 1170.12C1315.05 1165.65 1317.23 1160.62 1321.68 1158.84C1360.75 1143.22 1391.64 1117.71 1414.21 1099.08C1428.76 1087.07 1438.37 1079.13 1446.17 1077.28C1464.81 1072.85 1492.36 1088.46 1495.44 1090.25C1499.61 1092.69 1501.02 1098.04 1498.59 1102.2C1496.16 1106.38 1490.8 1107.78 1486.64 1105.35C1477.32 1099.93 1459.2 1092.13 1450.22 1094.28C1446.37 1095.19 1435.19 1104.42 1425.33 1112.56C1404.58 1129.7 1373.86 1155.05 1335.8 1171.86C1342.78 1194.6 1358.26 1261.13 1325.63 1326.18C1340.35 1332.49 1377.39 1345.06 1440.83 1346.13C1519.17 1347.56 1540.4 1305.29 1542.45 1300.75C1544.03 1295.45 1558.43 1245.74 1553.85 1220.37C1552.99 1215.63 1556.14 1211.08 1560.89 1210.22C1565.64 1209.36 1570.18 1212.52 1571.04 1217.27C1576.62 1248.11 1559.75 1303.95 1559.03 1306.31C1558.96 1306.55 1558.87 1306.8 1558.77 1307.04C1557.83 1309.38 1534.8 1363.64 1444.43 1363.64Z" fill="#000072"/>
<path d="M1285.16 1345.03C1267.23 1345.03 1255.02 1337.33 1247.16 1329.31C1220.8 1302.4 1218.78 1245.3 1233.45 1210.89C1255.82 1158.4 1330.86 1180.81 1334.05 1181.79C1338.66 1183.21 1341.25 1188.09 1339.83 1192.71C1338.41 1197.32 1333.52 1199.9 1328.91 1198.49C1328.12 1198.25 1265.72 1179.76 1249.52 1217.74C1237.3 1246.42 1239.06 1296.06 1259.65 1317.08C1271.43 1329.11 1288.5 1330.76 1310.39 1321.96C1314.87 1320.16 1319.95 1322.33 1321.75 1326.81C1323.55 1331.29 1321.38 1336.37 1316.9 1338.17C1304.74 1343.06 1294.22 1345.03 1285.16 1345.03Z" fill="#000072"/>
<defs>
<linearGradient id="paint0_linear_340_3" x1="1039.27" y1="1131.51" x2="1039.27" y2="1574.55" gradientUnits="userSpaceOnUse">
<stop stop-color="white"/>
<stop offset="1" stop-color="#B5B8DC"/>
</linearGradient>
<linearGradient id="paint1_linear_340_3" x1="1039.69" y1="434.795" x2="1039.69" y2="1337.26" gradientUnits="userSpaceOnUse">
<stop stop-color="white"/>
<stop offset="1" stop-color="#B5B8DC"/>
</linearGradient>
<linearGradient id="paint2_linear_340_3" x1="500.997" y1="1067.07" x2="552.094" y2="1067.07" gradientUnits="userSpaceOnUse">
<stop stop-color="white"/>
<stop offset="1" stop-color="#B5B8DC"/>
</linearGradient>
<linearGradient id="paint3_linear_340_3" x1="516.656" y1="1220.04" x2="759.568" y2="1220.04" gradientUnits="userSpaceOnUse">
<stop stop-color="white"/>
<stop offset="1" stop-color="#B5B8DC"/>
</linearGradient>
<linearGradient id="paint4_linear_340_3" x1="1576.2" y1="1067.07" x2="1525.11" y2="1067.07" gradientUnits="userSpaceOnUse">
<stop stop-color="white"/>
<stop offset="1" stop-color="#B5B8DC"/>
</linearGradient>
<linearGradient id="paint5_linear_340_3" x1="1560.54" y1="1220.04" x2="1317.63" y2="1220.04" gradientUnits="userSpaceOnUse">
<stop stop-color="white"/>
<stop offset="1" stop-color="#B5B8DC"/>
</linearGradient>
</defs>
</svg>
